<svg xmlns="http://www.w3.org/2000/svg" viewBox="0 0 94.02 100.61"><defs><linearGradient id="Boton-correcto_svg__Boton-correcto_svg__Degradado_sin_nombre_63" x1="47.01" x2="47.01" y2="89.92" gradientUnits="userSpaceOnUse"><stop offset="0" stop-color="#fff"/><stop offset=".11" stop-color="#fbfbfb" stop-opacity=".98"/><stop offset=".22" stop-color="#f1f0f0" stop-opacity=".94"/><stop offset=".33" stop-color="#dfdede" stop-opacity=".86"/><stop offset=".44" stop-color="#c6c4c3" stop-opacity=".75"/><stop offset=".55" stop-color="#a7a3a2" stop-opacity=".61"/><stop offset=".66" stop-color="#7f7b79" stop-opacity=".43"/><stop offset=".76" stop-color="#524c49" stop-opacity=".23"/><stop offset=".87" stop-color="#1f1713" stop-opacity="0"/></linearGradient><style>.Boton-correcto_svg__Boton-correcto_svg__cls-2{fill:#b5a560}.Boton-correcto_svg__Boton-correcto_svg__cls-5{fill:#238340}</style></defs><g style="isolation:isolate"><g id="Boton-correcto_svg__Boton-correcto_svg__Capa_1" data-name="Capa 1"><circle class="Boton-correcto_svg__Boton-correcto_svg__cls-2" cx="47.01" cy="53.6" r="47.01"/><path d="M47 0C21.05 0 0 19 0 45s21.05 45 47 45 47-19 47-45S73 0 47 0z" fill="#e5d47e"/><path d="M47 0C21.05 0 0 19 0 45s21.05 45 47 45 47-19 47-45S73 0 47 0z" style="mix-blend-mode:screen" opacity=".26" fill="url(#Boton-correcto_svg__Boton-correcto_svg__Degradado_sin_nombre_63)"/><path class="Boton-correcto_svg__Boton-correcto_svg__cls-2" d="M39.87 72.75L18.76 53.93a1.64 1.64 0 01.1-2.53l12.06-9.21a1.71 1.71 0 012.48.44l6.66 10.51a1.4 1.4 0 002.42-.08L60.35 20.3a2.47 2.47 0 013.65-.82l10.62 7.63a3 3 0 01.66 4.12L45.45 72.16a3.79 3.79 0 01-5.58.59z"/><path class="Boton-correcto_svg__Boton-correcto_svg__cls-5" d="M40.15 69.83L19.87 51.74a1.57 1.57 0 01.13-2.42l11.59-8.86a1.64 1.64 0 012.38.43L40.33 51a1.35 1.35 0 002.33-.08l17.17-31.49a2.38 2.38 0 013.47-.79L73.5 26a2.82 2.82 0 01.63 4L45.51 69.25a3.64 3.64 0 01-5.36.58z"/><path class="Boton-correcto_svg__Boton-correcto_svg__cls-5" d="M19.34 50.07v-4.31l7.11-.6-.6 4.91-4.53.98-1.98-.98zm52.17-27.24l2.55 3.68-2.17 3.1-3.81-3.11 3.43-3.67z"/><path d="M39.19 64.17L19.84 46.91a1.5 1.5 0 01.09-2.31L31 36.16a1.56 1.56 0 012.27.4l6.1 9.64a1.29 1.29 0 002.22-.07L58 16.1a2.28 2.28 0 013.32-.75l9.72 7a2.7 2.7 0 01.61 3.78L44.3 63.62a3.47 3.47 0 01-5.11.55z" fill="#3e9741"/></g></g></svg>