<svg xmlns="http://www.w3.org/2000/svg" xmlns:xlink="http://www.w3.org/1999/xlink" viewBox="0 0 94.02 100.61"><defs><linearGradient id="Boton-copa_svg__Boton-copa_svg__Degradado_sin_nombre_63" x1="47.01" x2="47.01" y2="89.92" gradientUnits="userSpaceOnUse"><stop offset="0" stop-color="#fff"/><stop offset=".11" stop-color="#fbfbfb" stop-opacity=".98"/><stop offset=".22" stop-color="#f1f0f0" stop-opacity=".94"/><stop offset=".33" stop-color="#dfdede" stop-opacity=".86"/><stop offset=".44" stop-color="#c6c4c3" stop-opacity=".75"/><stop offset=".55" stop-color="#a7a3a2" stop-opacity=".61"/><stop offset=".66" stop-color="#7f7b79" stop-opacity=".43"/><stop offset=".76" stop-color="#524c49" stop-opacity=".23"/><stop offset=".87" stop-color="#1f1713" stop-opacity="0"/></linearGradient><linearGradient id="Boton-copa_svg__Boton-copa_svg__Degradado_sin_nombre_7" x1="64.51" y1="34.72" x2="79.04" y2="34.72" gradientUnits="userSpaceOnUse"><stop offset="0" stop-color="#be952f"/><stop offset=".6" stop-color="#caa245"/><stop offset="1" stop-color="#cea74d"/></linearGradient><linearGradient id="Boton-copa_svg__Boton-copa_svg__Degradado_sin_nombre_42" x1="14.98" y1="34.72" x2="29.51" y2="34.72" gradientUnits="userSpaceOnUse"><stop offset="0" stop-color="#cea74d"/><stop offset=".34" stop-color="#c6a04b"/><stop offset=".88" stop-color="#b08e46"/><stop offset=".97" stop-color="#ab8a45"/><stop offset="1" stop-color="#a68625"/></linearGradient><linearGradient id="Boton-copa_svg__Boton-copa_svg__Degradado_sin_nombre_51" x1="31.45" y1="69.77" x2="62.62" y2="69.77" gradientUnits="userSpaceOnUse"><stop offset=".45" stop-color="#be952f"/><stop offset=".47" stop-color="#c09732"/><stop offset=".61" stop-color="#c8a041"/><stop offset=".76" stop-color="#cda54a"/><stop offset="1" stop-color="#cea74d"/></linearGradient><linearGradient id="Boton-copa_svg__Boton-copa_svg__Degradado_sin_nombre_7-2" x1="26.17" y1="37.38" x2="67.9" y2="37.38" xlink:href="#Boton-copa_svg__Boton-copa_svg__Degradado_sin_nombre_7"/><linearGradient id="Boton-copa_svg__Boton-copa_svg__Degradado_sin_nombre_55" x1="42.56" y1="68.4" x2="51.51" y2="68.4" gradientUnits="userSpaceOnUse"><stop offset="0" stop-color="#be952f"/><stop offset=".64" stop-color="#c7a041"/><stop offset="1" stop-color="#cea74d"/></linearGradient><style>.Boton-copa_svg__Boton-copa_svg__cls-10{fill:#cea74d}</style></defs><g style="isolation:isolate"><g id="Boton-copa_svg__Boton-copa_svg__Capa_1" data-name="Capa 1"><circle cx="47.01" cy="53.6" r="47.01" fill="#b5a560"/><path d="M47 0C21.05 0 0 19 0 45s21.05 45 47 45 47-19 47-45S73 0 47 0z" fill="#e5d47e"/><path d="M47 0C21.05 0 0 19 0 45s21.05 45 47 45 47-19 47-45S73 0 47 0z" style="mix-blend-mode:screen" opacity=".26" fill="url(#Boton-copa_svg__Boton-copa_svg__Degradado_sin_nombre_63)"/><path d="M78.1 25a5.67 5.67 0 00-5.81-.56 9.66 9.66 0 00-4 2.89L69.34 20a1.4 1.4 0 001.34-1.31l.77-6.37a1.6 1.6 0 00-.34-1.32c-.26-.29-1.61-1.56-2-1.56H24.94c-1.27.12-1 2.35-1 2.82l.77 6.37A1.42 1.42 0 0026.09 20l1.12 7.4a9.62 9.62 0 00-4.09-3 5.67 5.67 0 00-5.81.56c-2.19 1.73-3 5.17-2.39 9.69.22 1.52 1.67 2.89 3 4.1.6.56 1.51 1.42 1.52 1.69a6.83 6.83 0 00.56 5.83c1 1.46 2.71 2.21 5 2.21 2.81 0 4.33-1 5-3.4 2.5 9.2 8.59 12.3 13.57 13.22A19.17 19.17 0 0145 64a1.06 1.06 0 00-.13.5 1.23 1.23 0 000 .19 4.54 4.54 0 00-2.18 3.83v2.28a4.51 4.51 0 002.21 3.86 1.13 1.13 0 000 .32 1.07 1.07 0 00.72 1v.12c0 4.67-6.88 5.64-11 5.8h-1.75c-.33 0-.89-.57-1.13-.38-.41.31-.36 1.47-.29 2a1.47 1.47 0 001.48 1.24h29.62A1.46 1.46 0 0064 83.54a2.65 2.65 0 00-.68-1.87 5.11 5.11 0 00-1.5-.36l-1 .6c-4.1-.16-11-1.13-11-5.8V76a1.07 1.07 0 00.72-1 .86.86 0 000-.32 4.5 4.5 0 002.22-3.86v-2.35a4.54 4.54 0 00-2.18-3.83 1.21 1.21 0 000-.19 1 1 0 00-.13-.5 18.81 18.81 0 011.4-5.65c4.95-.92 11-4 13.54-13.12.69 2.34 2.22 3.3 5 3.3 2.33 0 4-.75 5-2.21a6.83 6.83 0 00.61-5.82c0-.29.91-1.15 1.51-1.71 1.28-1.21 2.73-2.58 2.95-4.1.68-4.52-.17-7.96-2.36-9.64zM73 40.87a3.56 3.56 0 010 3.37c-.58.87-1.73 1.26-3.36 1.15a1.89 1.89 0 01-1.36-.53c-.74-.87-.52-3.2-.18-6.72.57-6 2.11-9.28 4.85-10.25a5.24 5.24 0 011.71-.33 2.33 2.33 0 011.5.48c1.13.89 1.54 3.08 1.19 6.32-.07.72-1.1 1.57-2.1 2.39-1.38 1.19-3.02 2.55-2.25 4.12zm-52.9-4.12c-1-.82-2-1.67-2.1-2.39-.35-3.24.06-5.43 1.19-6.32a2.33 2.33 0 011.5-.48 5.24 5.24 0 011.71.33c2.74 1 4.28 4.22 4.85 10.25.34 3.52.56 5.85-.18 6.72a1.89 1.89 0 01-1.36.53c-1.63.11-2.79-.28-3.36-1.15a3.56 3.56 0 010-3.37c.83-1.57-.81-2.93-2.25-4.12z" fill="#9b8d53"/><path d="M71.43 23.33c-5.18 2.1-6.52 7.38-6.85 13.8-.38 7.35.75 9.48 4.81 9.47 6 0 5.78-5.45 5.07-7.41-.41-1.13 4-3.59 4.38-6.08 1.16-8.21-2.79-11.64-7.41-9.78zM76.79 33c-.22 2.13-5.46 4.09-4.36 6.27 1 1.91.86 5.63-3.77 5.29-2.68-.19-2.5-2.32-2-7.86.45-4.84 1.61-9.48 5.11-10.74s5.71.47 5.02 7.04z" fill="url(#Boton-copa_svg__Boton-copa_svg__Degradado_sin_nombre_7)"/><path d="M15.18 33.11c.35 2.49 4.79 5 4.38 6.08-.71 2-.95 7.4 5.06 7.41 4.07 0 5.19-2.12 4.82-9.47-.33-6.42-1.67-11.7-6.85-13.8C18 21.47 14 24.9 15.18 33.11zm7.05-7.2c3.5 1.26 4.66 5.9 5.11 10.74.52 5.54.7 7.67-2 7.86-4.63.34-4.74-3.38-3.77-5.29 1.1-2.18-4.14-4.14-4.37-6.27-.66-6.52 1.62-8.27 5.03-7.04z" fill="url(#Boton-copa_svg__Boton-copa_svg__Degradado_sin_nombre_42)"/><path d="M62.27 81.48a.87.87 0 00-.56-.18h-1.73c-4-.17-11.31-1.18-11.31-6.36v-2.5c0-3.53.29-12.81 2.2-16l-3.87.04-3.83-.08c1.91 3.23 2.17 12.51 2.2 16v2.48c0 5.18-7.27 6.19-11.32 6.36h-1.72a.87.87 0 00-.56.18.93.93 0 00-.35.86 1 1 0 001 .8h29.23a1 1 0 001-.8.93.93 0 00-.38-.8z" fill="url(#Boton-copa_svg__Boton-copa_svg__Degradado_sin_nombre_51)"/><path d="M47 17.9H26.17l.9 6.33 2.23 15.61c1.62 11.88 8.64 17 17.63 17h.21c9 0 16-5.14 17.63-17L67 24.23l.9-6.33z" fill="url(#Boton-copa_svg__Boton-copa_svg__Degradado_sin_nombre_7-2)"/><path class="Boton-copa_svg__Boton-copa_svg__cls-10" d="M47 9.47H24.94a1 1 0 00-.82 1.15l.76 6.38a.9.9 0 00.82.86h42.67a.9.9 0 00.83-.86l.8-6.38a1 1 0 00-.83-1.15z"/><rect class="Boton-copa_svg__Boton-copa_svg__cls-10" x="44.7" y="73.22" width="4.68" height="1.13" rx=".57" ry=".57"/><rect class="Boton-copa_svg__Boton-copa_svg__cls-10" x="44.7" y="62.62" width="4.68" height="1.13" rx=".57" ry=".57"/><rect x="42.56" y="63.19" width="8.95" height="10.44" rx="4.05" ry="4.05" fill="url(#Boton-copa_svg__Boton-copa_svg__Degradado_sin_nombre_55)"/><path class="Boton-copa_svg__Boton-copa_svg__cls-10" d="M47.24 71.92h-.41a3 3 0 01-2.94-3v-1.08a3 3 0 012.94-3h.41a2.94 2.94 0 012.94 3V69a2.94 2.94 0 01-2.94 2.92zm-.41-5.08a1 1 0 00-1 1V69a1 1 0 001 1h.41a1 1 0 001-1v-1.16a1 1 0 00-1-1z"/></g></g></svg>