<svg xmlns="http://www.w3.org/2000/svg" xmlns:xlink="http://www.w3.org/1999/xlink" viewBox="0 0 143.45 140.4"><defs><linearGradient id="Boton-pista_svg__Boton-pista_svg__Degradado_sin_nombre_2" x1="34.47" y1="32.15" x2="111.5" y2="-12.32" gradientUnits="userSpaceOnUse"><stop offset="0" stop-color="#cec69b"/><stop offset=".17" stop-color="#c7bd96"/><stop offset=".67" stop-color="#b5a78a"/><stop offset="1" stop-color="#af9f85"/></linearGradient><linearGradient id="Boton-pista_svg__Boton-pista_svg__Degradado_sin_nombre_2-2" x1="49.41" y1="63.13" x2="125.86" y2="18.99" xlink:href="#Boton-pista_svg__Boton-pista_svg__Degradado_sin_nombre_2"/><linearGradient id="Boton-pista_svg__Boton-pista_svg__Degradado_sin_nombre_2-3" x1="68.29" y1="81.97" x2="140.37" y2="40.36" xlink:href="#Boton-pista_svg__Boton-pista_svg__Degradado_sin_nombre_2"/><linearGradient id="Boton-pista_svg__Boton-pista_svg__Degradado_sin_nombre_2-4" x1="101.8" y1="87.85" x2="156.34" y2="56.36" xlink:href="#Boton-pista_svg__Boton-pista_svg__Degradado_sin_nombre_2"/><style>.Boton-pista_svg__Boton-pista_svg__cls-8{fill:#c2a5a0}.Boton-pista_svg__Boton-pista_svg__cls-11{fill:#32312e}</style></defs><g style="isolation:isolate"><g id="Boton-pista_svg__Boton-pista_svg__Capa_1" data-name="Capa 1"><path d="M21.42 0a15.22 15.22 0 006.32 12.4 15.31 15.31 0 014.07 20.42 15.31 15.31 0 009.49 22.92 15.3 15.3 0 0111.56 17.31A15.31 15.31 0 0070.4 90.58a15.32 15.32 0 0117.31 11.57 15.31 15.31 0 0022.92 9.49 15.32 15.32 0 0120.42 4.06 15.19 15.19 0 0012.4 6.33V0z" fill="#d2aca3"/><g style="mix-blend-mode:overlay" opacity=".3"><path d="M36.88 32L119 7.8a2.85 2.85 0 00-1-5.57l-85.8 7a2.86 2.86 0 00-2.56 3.43l3.64 17.2a2.84 2.84 0 003.6 2.14z" fill="url(#Boton-pista_svg__Boton-pista_svg__Degradado_sin_nombre_2)"/><path d="M57.67 70.88l65.07-52.47a2.84 2.84 0 00-3.11-4.73L47.06 51.94a2.83 2.83 0 00-1.19 3.84L53.37 70a2.85 2.85 0 004.3.88z" fill="url(#Boton-pista_svg__Boton-pista_svg__Degradado_sin_nombre_2-2)"/><path d="M88.84 96.16l41.47-70.3a2.84 2.84 0 00-4.58-3.33L71.66 83.94a2.84 2.84 0 00.49 4.2L84.75 97a2.85 2.85 0 004.09-.84z" fill="url(#Boton-pista_svg__Boton-pista_svg__Degradado_sin_nombre_2-3)"/><path d="M113.82 106.91l14.11 3.5a2.85 2.85 0 003.51-2.39l10-76.28a2.85 2.85 0 00-5.53-1.24c-8.46 26.51-20 62.26-24 72.64a2.83 2.83 0 001.91 3.77z" fill="url(#Boton-pista_svg__Boton-pista_svg__Degradado_sin_nombre_2-4)"/></g><path class="Boton-pista_svg__Boton-pista_svg__cls-8" d="M143.45 126.1v14.3H138a22.82 22.82 0 01-18.66-9.52 10 10 0 00-13.24-2.64A23 23 0 0171.56 114a10 10 0 00-11.23-7.5 23.05 23.05 0 01-26.39-26.4 10 10 0 00-7.5-11.22 23.06 23.06 0 01-14.29-34.53 10 10 0 00-2.63-13.24A22.82 22.82 0 010 2.44V0h12a14.22 14.22 0 003.57 9 10.13 10.13 0 001.64 1.49 23.16 23.16 0 016.12 30.73 9.92 9.92 0 006.16 14.86 23.16 23.16 0 0117.4 26.05 9.93 9.93 0 0011.38 11.38 23.16 23.16 0 0126 17.41 9.93 9.93 0 0014.86 6.15 23.14 23.14 0 0130.73 6.11 10.2 10.2 0 001.49 1.65 11.73 11.73 0 007.61 2.33 10.06 10.06 0 004.49-1.06z"/><path d="M143.45 117.11v13H139a21.19 21.19 0 01-17.34-8.84 9.28 9.28 0 00-12.3-2.45 21.4 21.4 0 01-32-13.26 9.25 9.25 0 00-10.43-7 21.4 21.4 0 01-24.53-24.5 9.27 9.27 0 00-7-10.43 21.4 21.4 0 01-13.26-32 9.27 9.27 0 00-2.45-12.3A21.18 21.18 0 0110.88 2V0H22a13.21 13.21 0 003.3 8.06 9.24 9.24 0 001.53 1.39A21.49 21.49 0 0132.54 38a9.24 9.24 0 005.72 13.81A21.5 21.5 0 0154.43 76 9.22 9.22 0 0065 86.55a21.49 21.49 0 0124.19 16.16 9.24 9.24 0 0013.81 5.72 21.48 21.48 0 0128.53 5.67 9.24 9.24 0 001.39 1.53 10.82 10.82 0 007.07 2.16 9.73 9.73 0 003.46-.68z" fill="#dcc4c0"/><path class="Boton-pista_svg__Boton-pista_svg__cls-8" d="M108 55.78c8.54-4.45 11.35-13.78 11.35-23.5C119.36 17.93 107.5 7.37 92 7.37S66.2 18.8 66.2 33.15c0 13.85 11.71 25.16 26.47 25.93l8.14 31.28a7 7 0 008.48 5l1.72-.44a7 7 0 005-8.48z"/><rect x="91.96" y="47.89" width="15.2" height="47.69" rx="7.6" ry="7.6" transform="rotate(-14.59 99.55 71.735)" fill="#040006"/><rect class="Boton-pista_svg__Boton-pista_svg__cls-11" x="94.95" y="47.89" width="15.2" height="48.08" rx="7.6" ry="7.6" transform="rotate(-14 103.994 71.72)"/><ellipse cx="90.16" cy="34.73" rx="27.21" ry="25.19" fill="#110f11"/><circle class="Boton-pista_svg__Boton-pista_svg__cls-11" cx="93.07" cy="33.38" r="24.3"/><circle cx="93.07" cy="33.38" r="19.32" fill="#3d4845"/><circle cx="92" cy="34.45" r="18.25" fill="#64b0d3"/><path d="M106.53 30.31c.47 1.86-12.22 1.82-14.53 2.38-3.36.8-13.68 6.09-14.07 4.47-2-8.2 2.86-16.38 10.76-18.27a15 15 0 0117.84 11.42z" style="mix-blend-mode:hard-light" fill="#d5dbd9" opacity=".4"/></g></g></svg>