<svg xmlns="http://www.w3.org/2000/svg" viewBox="0 0 94.05 100.65"><defs><linearGradient id="Boton-flecha_svg__Boton-flecha_svg__Degradado_sin_nombre_63" x1="47.03" x2="47.03" y2="89.95" gradientUnits="userSpaceOnUse"><stop offset="0" stop-color="#fff"/><stop offset=".11" stop-color="#fbfbfb" stop-opacity=".98"/><stop offset=".22" stop-color="#f1f0f0" stop-opacity=".94"/><stop offset=".33" stop-color="#dfdede" stop-opacity=".86"/><stop offset=".44" stop-color="#c6c4c3" stop-opacity=".75"/><stop offset=".55" stop-color="#a7a3a2" stop-opacity=".61"/><stop offset=".66" stop-color="#7f7b79" stop-opacity=".43"/><stop offset=".76" stop-color="#524c49" stop-opacity=".23"/><stop offset=".87" stop-color="#1f1713" stop-opacity="0"/></linearGradient><style>.Boton-flecha_svg__Boton-flecha_svg__cls-2{fill:#b5a560}</style></defs><g style="isolation:isolate"><g id="Boton-flecha_svg__Boton-flecha_svg__Capa_1" data-name="Capa 1"><circle class="Boton-flecha_svg__Boton-flecha_svg__cls-2" cx="47.03" cy="53.62" r="47.03"/><path d="M47 0C21.05 0 0 19 0 45s21.05 45 47 45 47-19 47-45S73 0 47 0z" fill="#e5d47e"/><path d="M47 0C21.05 0 0 19 0 45s21.05 45 47 45 47-19 47-45S73 0 47 0z" style="mix-blend-mode:screen" opacity=".26" fill="url(#Boton-flecha_svg__Boton-flecha_svg__Degradado_sin_nombre_63)"/><path class="Boton-flecha_svg__Boton-flecha_svg__cls-2" d="M81.67 38.82L47.21 17.13l-2.06-1.45A2.53 2.53 0 0044 15.2a2.74 2.74 0 00-1.75.32s-1.74-.36-1.75-.35l1.41.59-3.14-1.1 3.12 1.11c-.18.15-3.48-.78-3.62-.59l-7 9.93c-1.72 2.75 2.71 6.49 4.4 7.75l1-.32c.36.25-.21-3.09 0-2.76l-24 .08a1.78 1.78 0 00-1.78 1.77v21.8a4.13 4.13 0 004 4.07h16c-3.41 1.82.86 7.21 1.65 8.32l8.1 11.26a2.65 2.65 0 00.48.52l.33.23a2.71 2.71 0 001.74.32 2.57 2.57 0 001.16-.48l2.87-2L80.5 51.92c3.95-3.14 4.57-7.73 1.17-13.1z"/><path d="M81.13 38.44L46 17.69l-.19-.12-2-1.39a2.69 2.69 0 00-2.87-.18l-.33.23c-.18.14-.86-3-1-2.84l-6 8.45a4.87 4.87 0 001.27 6.65l.51.36a2.76 2.76 0 01-1.59 5H17.3a4.56 4.56 0 00-4.54 4.54v13.45a3.93 3.93 0 003.92 3.92h19.37a2.73 2.73 0 001.71-.59L41 52.63 33.36 58c-3.41 1.83-.11 5.33.69 6.43l6 8.46a3 3 0 00.49.51l.33.23a2.67 2.67 0 001.75.32 2.61 2.61 0 001.16-.48l2-1.45 33.41-23.74c4-3.14 3.32-4.84 3.32-7.46a3.49 3.49 0 00-1.38-2.38z" fill="#238340"/><path d="M81.13 38.32L45.9 13.49l-2-1.45a2.69 2.69 0 00-2.91-.16l-.33.23a2.7 2.7 0 00-.49.52l-6 8.45a2.24 2.24 0 00.75 3.29l7.64 5.39H14.54a1.78 1.78 0 00-1.78 1.78v18.9a1.16 1.16 0 001.16 1.16h28.52L34.8 57a2.24 2.24 0 00-.75 3.29l6 8.46a3 3 0 00.49.51l.33.23a2.74 2.74 0 001.75.32 2.61 2.61 0 001.16-.48l2-1.45 35.35-24.8a3.45 3.45 0 001.38-2.38 3.49 3.49 0 00-1.38-2.38z" fill="#3e9741"/></g></g></svg>