<svg xmlns="http://www.w3.org/2000/svg" xmlns:xlink="http://www.w3.org/1999/xlink" viewBox="0 0 519.4 247.65"><defs><linearGradient id="submarino_svg__submarino_svg__Degradado_sin_nombre_5" x1="48.74" y1="217.29" x2="48.74" y2="204.16" gradientUnits="userSpaceOnUse"><stop offset="0" stop-color="#f2d545"/><stop offset=".35" stop-color="#dcc43a"/><stop offset=".7" stop-color="#cdb933"/><stop offset=".99" stop-color="#c8b531"/></linearGradient><linearGradient id="submarino_svg__submarino_svg__Degradado_sin_nombre_5-2" x1="75.73" y1="217.29" x2="75.73" y2="204.16" xlink:href="#submarino_svg__submarino_svg__Degradado_sin_nombre_5"/><linearGradient id="submarino_svg__submarino_svg__Degradado_sin_nombre_5-3" x1="102.79" y1="217.29" x2="102.79" y2="204.16" xlink:href="#submarino_svg__submarino_svg__Degradado_sin_nombre_5"/><linearGradient id="submarino_svg__submarino_svg__Degradado_sin_nombre_4" x1="43.6" y1="210.47" x2="53.87" y2="210.47" gradientUnits="userSpaceOnUse"><stop offset=".01" stop-color="#c8b531"/><stop offset=".16" stop-color="#dac33a"/><stop offset=".35" stop-color="#e8cd40"/><stop offset=".58" stop-color="#f0d344"/><stop offset="1" stop-color="#f2d545"/></linearGradient><linearGradient id="submarino_svg__submarino_svg__Degradado_sin_nombre_3" x1="70.48" y1="210.47" x2="80.75" y2="210.47" xlink:href="#submarino_svg__submarino_svg__Degradado_sin_nombre_4"/><linearGradient id="submarino_svg__submarino_svg__Degradado_sin_nombre_2" x1="97.61" y1="210.47" x2="107.88" y2="210.47" xlink:href="#submarino_svg__submarino_svg__Degradado_sin_nombre_4"/><linearGradient id="submarino_svg__submarino_svg__Degradado_sin_nombre_90" x1="75.54" y1="57.45" x2="75.54" y2="32.5" gradientUnits="userSpaceOnUse"><stop offset=".01" stop-color="#c8b531"/><stop offset=".24" stop-color="#d4bf37"/><stop offset=".63" stop-color="#f2d545"/></linearGradient><linearGradient id="submarino_svg__submarino_svg__Degradado_sin_nombre_122" x1="49.71" y1="47.44" x2="49.71" y2="30.84" gradientUnits="userSpaceOnUse"><stop offset=".22" stop-color="#c8b531"/><stop offset=".38" stop-color="#d4bf37"/><stop offset=".63" stop-color="#f2d545"/></linearGradient><linearGradient id="submarino_svg__submarino_svg__Degradado_sin_nombre_101" x1="49.8" y1="35.57" x2="49.8" y2="42.01" gradientUnits="userSpaceOnUse"><stop offset="0" stop-color="#f2d545"/><stop offset=".42" stop-color="#f0d344"/><stop offset=".65" stop-color="#e8cd40"/><stop offset=".84" stop-color="#dac33a"/><stop offset=".99" stop-color="#c8b531"/></linearGradient><linearGradient id="submarino_svg__submarino_svg__Degradado_sin_nombre_6" x1="85.01" y1="32.5" x2="85.01" y2="52.11" gradientUnits="userSpaceOnUse"><stop offset=".22" stop-color="#f2d545"/><stop offset=".51" stop-color="#efd344"/><stop offset=".71" stop-color="#e6cc3f"/><stop offset=".88" stop-color="#d7c038"/><stop offset=".99" stop-color="#c8b531"/></linearGradient><linearGradient id="submarino_svg__submarino_svg__Degradado_sin_nombre_28" x1="60.18" y1="33.25" x2="60.18" y2="36.4" gradientUnits="userSpaceOnUse"><stop offset="0" stop-color="#f2d545"/><stop offset=".99" stop-color="#ddbf43"/></linearGradient><linearGradient id="submarino_svg__submarino_svg__Degradado_sin_nombre_28-2" x1="66.41" y1="33.25" x2="66.41" y2="36.4" xlink:href="#submarino_svg__submarino_svg__Degradado_sin_nombre_28"/><linearGradient id="submarino_svg__submarino_svg__Degradado_sin_nombre_116" x1="131.03" y1="60.23" x2="131.03" y2="283.63" gradientUnits="userSpaceOnUse"><stop offset="0" stop-color="#bda72c"/><stop offset=".19" stop-color="#b8a32a"/><stop offset=".42" stop-color="#aa9622"/><stop offset=".67" stop-color="#928116"/><stop offset=".92" stop-color="#706306"/><stop offset="1" stop-color="#655900"/></linearGradient><linearGradient id="submarino_svg__submarino_svg__Degradado_sin_nombre_113" x1="129.21" y1="200.47" x2="129.21" y2="55.72" gradientUnits="userSpaceOnUse"><stop offset=".01" stop-color="#c8b531"/><stop offset=".16" stop-color="#dbc33a"/><stop offset=".34" stop-color="#e8cd40"/><stop offset=".56" stop-color="#f0d344"/><stop offset="1" stop-color="#f2d545"/></linearGradient><linearGradient id="submarino_svg__submarino_svg__Degradado_sin_nombre_118" x1="173.37" y1="187.36" x2="197.68" y2="229.47" gradientTransform="rotate(180 185.525 208.415)" gradientUnits="userSpaceOnUse"><stop offset=".01" stop-color="#c8b531"/><stop offset=".3" stop-color="#cdb933"/><stop offset=".65" stop-color="#dcc43a"/><stop offset="1" stop-color="#f2d545"/></linearGradient><linearGradient id="submarino_svg__submarino_svg__Degradado_sin_nombre_282" x1="392.42" y1="35.36" x2="392.42" y2="40.51" gradientUnits="userSpaceOnUse"><stop offset="0" stop-color="#8f7b00"/><stop offset=".28" stop-color="#9d880d"/><stop offset="1" stop-color="#bda72c"/></linearGradient><linearGradient id="submarino_svg__submarino_svg__Degradado_sin_nombre_270" x1="392.42" y1="31.72" x2="392.42" y2="36.16" gradientUnits="userSpaceOnUse"><stop offset=".01" stop-color="#c85b36"/><stop offset=".36" stop-color="#c75936"/><stop offset=".54" stop-color="#c25134"/><stop offset=".69" stop-color="#ba4331"/><stop offset=".81" stop-color="#af302d"/><stop offset=".92" stop-color="#a11828"/><stop offset="1" stop-color="#930023"/></linearGradient><linearGradient id="submarino_svg__submarino_svg__Degradado_sin_nombre_167" x1="500.18" y1="39.02" x2="472.41" y2="86.3" gradientUnits="userSpaceOnUse"><stop offset="0" stop-color="#f2d545"/><stop offset="1" stop-color="#bda72c"/></linearGradient><linearGradient id="submarino_svg__submarino_svg__Degradado_sin_nombre_157" x1="392.95" y1="40.06" x2="392.95" y2="71.72" gradientUnits="userSpaceOnUse"><stop offset=".5" stop-color="#c8b531"/><stop offset="1" stop-color="#f2d545"/></linearGradient><linearGradient id="submarino_svg__submarino_svg__Degradado_sin_nombre_237" x1="250.04" y1="137.27" x2="509.49" y2="137.27" gradientUnits="userSpaceOnUse"><stop offset=".37" stop-color="#c8b531"/><stop offset=".56" stop-color="#cdb833"/><stop offset=".77" stop-color="#dac33a"/><stop offset=".98" stop-color="#f0d344"/><stop offset="1" stop-color="#f2d545"/></linearGradient><linearGradient id="submarino_svg__submarino_svg__Degradado_sin_nombre_73" x1="259.94" y1="68.92" x2="309.65" y2="68.92" gradientUnits="userSpaceOnUse"><stop offset=".12" stop-color="#d7c333"/><stop offset=".32" stop-color="#e2ca3a"/><stop offset=".66" stop-color="#eed242"/><stop offset="1" stop-color="#f2d545"/></linearGradient><linearGradient id="submarino_svg__submarino_svg__Degradado_sin_nombre_113-2" x1="250.04" y1="137.27" x2="410.84" y2="137.27" xlink:href="#submarino_svg__submarino_svg__Degradado_sin_nombre_113"/><linearGradient id="submarino_svg__submarino_svg__Degradado_sin_nombre_247" x1="371.18" y1="55.05" x2="426.9" y2="55.05" xlink:href="#submarino_svg__submarino_svg__Degradado_sin_nombre_113"/><linearGradient id="submarino_svg__submarino_svg__Degradado_sin_nombre_73-2" x1="331.19" y1="57.93" x2="386.44" y2="57.93" xlink:href="#submarino_svg__submarino_svg__Degradado_sin_nombre_73"/><linearGradient id="submarino_svg__submarino_svg__Degradado_sin_nombre_236" x1="450.15" y1="186.09" x2="446.85" y2="167.33" gradientUnits="userSpaceOnUse"><stop offset="0" stop-color="#655900"/><stop offset=".02" stop-color="#685b01"/><stop offset=".31" stop-color="#8d7c14"/><stop offset=".58" stop-color="#a79421"/><stop offset=".82" stop-color="#b7a229"/><stop offset="1" stop-color="#bda72c"/></linearGradient><linearGradient id="submarino_svg__submarino_svg__Degradado_sin_nombre_116-2" x1="417.91" y1="194.28" x2="519.38" y2="194.28" xlink:href="#submarino_svg__submarino_svg__Degradado_sin_nombre_116"/><linearGradient id="submarino_svg__submarino_svg__Degradado_sin_nombre_377" x1="447.18" y1="110.82" x2="447.18" y2="151.95" gradientUnits="userSpaceOnUse"><stop offset=".04" stop-color="#cebd72"/><stop offset=".33" stop-color="#cab970"/><stop offset=".64" stop-color="#c0ac68"/><stop offset=".95" stop-color="#ae975c"/><stop offset="1" stop-color="#aa935a"/></linearGradient><linearGradient id="submarino_svg__submarino_svg__Degradado_sin_nombre_290" x1="281.73" y1="27.58" x2="281.73" y2="2.2" gradientUnits="userSpaceOnUse"><stop offset="0" stop-color="#63a7cb"/><stop offset=".7" stop-color="#83bacb"/><stop offset="1" stop-color="#93c3cb"/></linearGradient><linearGradient id="submarino_svg__submarino_svg__Degradado_sin_nombre_228" x1="471.7" y1="63.87" x2="492.69" y2="63.87" gradientUnits="userSpaceOnUse"><stop offset="0" stop-color="#655900" stop-opacity=".2"/><stop offset=".12" stop-color="#6a5e03" stop-opacity=".25"/><stop offset=".32" stop-color="#796a0a" stop-opacity=".38"/><stop offset=".58" stop-color="#907f16" stop-opacity=".59"/><stop offset=".88" stop-color="#b09b25" stop-opacity=".88"/><stop offset="1" stop-color="#bda72c"/></linearGradient><linearGradient id="submarino_svg__submarino_svg__Degradado_sin_nombre_116-3" x1="472.89" y1="69.82" x2="503.46" y2="69.82" xlink:href="#submarino_svg__submarino_svg__Degradado_sin_nombre_116"/><linearGradient id="submarino_svg__submarino_svg__Degradado_sin_nombre_329" x1="253.69" y1="98.8" x2="269.19" y2="98.8" gradientUnits="userSpaceOnUse"><stop offset=".37" stop-color="#bda72c"/><stop offset=".37" stop-color="#bca62b"/><stop offset=".47" stop-color="#b39e18"/><stop offset=".58" stop-color="#ac980a"/><stop offset=".72" stop-color="#a89402"/><stop offset="1" stop-color="#a79300"/></linearGradient><linearGradient id="submarino_svg__submarino_svg__Degradado_sin_nombre_73-3" x1="241.86" y1="98.77" x2="265.52" y2="98.77" xlink:href="#submarino_svg__submarino_svg__Degradado_sin_nombre_73"/><linearGradient id="submarino_svg__submarino_svg__Degradado_sin_nombre_289" x1="244.21" y1="98.77" x2="263.17" y2="98.77" gradientUnits="userSpaceOnUse"><stop offset="0" stop-color="#93c3cb"/><stop offset=".3" stop-color="#83bacb"/><stop offset="1" stop-color="#63a7cb"/></linearGradient><linearGradient id="submarino_svg__submarino_svg__Degradado_sin_nombre_329-2" x1="395.73" y1="86.85" x2="395.73" y2="110.69" xlink:href="#submarino_svg__submarino_svg__Degradado_sin_nombre_329"/><linearGradient id="submarino_svg__submarino_svg__Degradado_sin_nombre_73-4" x1="376.15" y1="98.73" x2="399.8" y2="98.73" xlink:href="#submarino_svg__submarino_svg__Degradado_sin_nombre_73"/><linearGradient id="submarino_svg__submarino_svg__Degradado_sin_nombre_289-2" x1="387.98" y1="89.21" x2="387.98" y2="108.26" xlink:href="#submarino_svg__submarino_svg__Degradado_sin_nombre_289"/><linearGradient id="submarino_svg__submarino_svg__Degradado_sin_nombre_142" x1="217.13" y1="225.24" x2="223.29" y2="242.16" gradientUnits="userSpaceOnUse"><stop offset="0" stop-color="#95976f"/><stop offset=".13" stop-color="#a4a374"/><stop offset=".51" stop-color="#cec383"/><stop offset=".82" stop-color="#e8d88c"/><stop offset="1" stop-color="#f2df8f"/></linearGradient><linearGradient id="submarino_svg__submarino_svg__Degradado_sin_nombre_378" x1="450.96" y1="151.95" x2="450.96" y2="110.82" gradientUnits="userSpaceOnUse"><stop offset=".13" stop-color="#1f1713" stop-opacity="0"/><stop offset=".24" stop-color="#524c49" stop-opacity=".23"/><stop offset=".34" stop-color="#7f7b79" stop-opacity=".43"/><stop offset=".45" stop-color="#a7a3a2" stop-opacity=".61"/><stop offset=".56" stop-color="#c6c4c3" stop-opacity=".75"/><stop offset=".67" stop-color="#dfdede" stop-opacity=".86"/><stop offset=".78" stop-color="#f1f0f0" stop-opacity=".94"/><stop offset=".89" stop-color="#fbfbfb" stop-opacity=".98"/><stop offset="1" stop-color="#fff"/></linearGradient><radialGradient id="submarino_svg__submarino_svg__Degradado_sin_nombre_381" cx="129.16" cy="127.1" r="259.07" gradientUnits="userSpaceOnUse"><stop offset=".13" stop-color="#595db3"/><stop offset=".28" stop-color="#585aac"/><stop offset=".5" stop-color="#53539a"/><stop offset=".75" stop-color="#4d487c"/><stop offset=".77" stop-color="#4c477a"/></radialGradient><style>.submarino_svg__submarino_svg__cls-5{fill:#7f6d25}.submarino_svg__submarino_svg__cls-8{fill:#30280d}.submarino_svg__submarino_svg__cls-9{fill:#c02722}.submarino_svg__submarino_svg__cls-14{fill:#bda72c}.submarino_svg__submarino_svg__cls-15{fill:#9d8a37}.submarino_svg__submarino_svg__cls-18,.submarino_svg__submarino_svg__cls-30,.submarino_svg__submarino_svg__cls-31,.submarino_svg__submarino_svg__cls-48{fill:none}.submarino_svg__submarino_svg__cls-48{stroke:#7f6d25}.submarino_svg__submarino_svg__cls-18,.submarino_svg__submarino_svg__cls-30,.submarino_svg__submarino_svg__cls-31,.submarino_svg__submarino_svg__cls-48{stroke-linecap:round}.submarino_svg__submarino_svg__cls-18,.submarino_svg__submarino_svg__cls-30,.submarino_svg__submarino_svg__cls-31{stroke-miterlimit:10}.submarino_svg__submarino_svg__cls-18{stroke:#30280d}.submarino_svg__submarino_svg__cls-29{fill:#685711}.submarino_svg__submarino_svg__cls-30{stroke:#9d8a37;stroke-width:.4px}.submarino_svg__submarino_svg__cls-31{stroke:#cfb63e;stroke-width:.3px}.submarino_svg__submarino_svg__cls-34{fill:#f2d545}.submarino_svg__submarino_svg__cls-58{fill:#fff}.submarino_svg__submarino_svg__cls-48{stroke-linejoin:round;stroke-width:2.52px}.submarino_svg__submarino_svg__cls-58{opacity:.34;mix-blend-mode:screen}.submarino_svg__submarino_svg__cls-72{fill:#bd4521}</style></defs><g style="isolation:isolate"><g id="submarino_svg__submarino_svg__Capa_1" data-name="Capa 1"><path d="M112.53 213.92H46.28c-.48 0-.87-2.23-.87-5s.39-5 .87-5h66.25c.48 0 .87 2.23.87 5s-.4 5-.87 5z" fill="#af993c"/><path d="M37.35 204.16h22.78V212a5.26 5.26 0 01-5.26 5.26H42.61a5.26 5.26 0 01-5.26-5.26v-7.87.03z" fill="url(#submarino_svg__submarino_svg__Degradado_sin_nombre_5)"/><path d="M64.34 204.16h22.78V212a5.26 5.26 0 01-5.26 5.26H69.6a5.26 5.26 0 01-5.26-5.26v-7.87z" fill="url(#submarino_svg__submarino_svg__Degradado_sin_nombre_5-2)"/><circle class="submarino_svg__submarino_svg__cls-5" cx="48.74" cy="210.47" r="5.87"/><path d="M91.4 204.16h22.78V212a5.26 5.26 0 01-5.26 5.26H96.66A5.26 5.26 0 0191.4 212v-7.87.03z" fill="url(#submarino_svg__submarino_svg__Degradado_sin_nombre_5-3)"/><circle cx="48.74" cy="210.47" r="5.13" fill="url(#submarino_svg__submarino_svg__Degradado_sin_nombre_4)"/><rect class="submarino_svg__submarino_svg__cls-8" x="49.66" y="207.42" width="1.56" height="4.74" rx=".78" transform="rotate(62.27 50.434 209.787)"/><circle class="submarino_svg__submarino_svg__cls-9" cx="57.25" cy="207" r="1.28"/><circle class="submarino_svg__submarino_svg__cls-5" cx="75.61" cy="210.47" r="5.87"/><circle cx="75.61" cy="210.47" r="5.13" fill="url(#submarino_svg__submarino_svg__Degradado_sin_nombre_3)"/><rect class="submarino_svg__submarino_svg__cls-8" x="74.83" y="206.17" width="1.56" height="4.74" rx=".78"/><circle class="submarino_svg__submarino_svg__cls-9" cx="84.12" cy="207" r="1.28"/><circle class="submarino_svg__submarino_svg__cls-5" cx="102.74" cy="210.47" r="5.87"/><circle cx="102.74" cy="210.47" r="5.13" fill="url(#submarino_svg__submarino_svg__Degradado_sin_nombre_2)"/><rect class="submarino_svg__submarino_svg__cls-8" x="103.13" y="209.48" width="1.56" height="4.74" rx=".78" transform="rotate(143.85 103.905 211.856)"/><circle class="submarino_svg__submarino_svg__cls-9" cx="111.26" cy="207" r="1.28"/><path d="M101.19 33.75l-.33-.12c-.33-.12-.66-.22-1-.32l-.23-.07-1-.26h-.14l-.81-.16c-.38-.06-.81-.12-1.28-.17l-1.17-.09h-38.4a19.05 19.05 0 00-2 .1 17.87 17.87 0 00-2.55.44 19.73 19.73 0 00-9.28 5 17 17 0 00-1.58 1.69 19.78 19.78 0 00-4.53 12.61v4.64l77.27.39v-5a20 20 0 00-12.97-18.68zM77.51 50.4l.1.06.19.1h-.19a.12.12 0 01-.12-.12.17.17 0 01.02-.04zm18.21-2l.09-.08a.09.09 0 010 .07.12.12 0 01-.11.13h-.16zm3.7-5.82v-.11a.11.11 0 01.08.1.12.12 0 01-.11.13h-.06s.07-.06.09-.1zm-29.6-2.86a.36.36 0 000 .11.25.25 0 000 .12.12.12 0 01-.11-.13.09.09 0 01.11-.08zm30.61-2.64a.12.12 0 01-.11.13.49.49 0 000-.12V37a.11.11 0 01.11.1zm-30.32-2.75a1.36 1.36 0 010 .17.31.31 0 010 .08.13.13 0 010-.25z" fill="url(#submarino_svg__submarino_svg__Degradado_sin_nombre_90)"/><circle cx="49.71" cy="39.14" r="8.3" fill="url(#submarino_svg__submarino_svg__Degradado_sin_nombre_122)"/><circle class="submarino_svg__submarino_svg__cls-14" cx="49.56" cy="39.07" r="6.62"/><circle class="submarino_svg__submarino_svg__cls-15" cx="49.8" cy="38.78" r="4.48"/><circle class="submarino_svg__submarino_svg__cls-5" cx="49.82" cy="38.76" r="3.98"/><path d="M51.77 36.12L49 35.58a.51.51 0 00-.49.17l-1.91 2.16a.52.52 0 00-.1.51l.94 2.7a.52.52 0 00.39.34l2.81.54a.51.51 0 00.49-.17L53 39.67a.53.53 0 00.1-.51l-.94-2.7a.5.5 0 00-.39-.34z" fill="url(#submarino_svg__submarino_svg__Degradado_sin_nombre_101)"/><circle class="submarino_svg__submarino_svg__cls-5" cx="66.65" cy="34.7" r=".88"/><circle class="submarino_svg__submarino_svg__cls-5" cx="39.66" cy="52.45" r=".88"/><circle class="submarino_svg__submarino_svg__cls-5" cx="41.03" cy="45.45" r=".88"/><circle class="submarino_svg__submarino_svg__cls-5" cx="105.48" cy="38.79" r=".88"/><circle class="submarino_svg__submarino_svg__cls-5" cx="109.63" cy="44.16" r=".88"/><circle class="submarino_svg__submarino_svg__cls-5" cx="111.68" cy="52.45" r=".88"/><circle class="submarino_svg__submarino_svg__cls-8" cx="63.76" cy="37.91" r="1.16"/><circle class="submarino_svg__submarino_svg__cls-8" cx="62.25" cy="51.48" r="1.16"/><path d="M63.76 37.91c0 .75-1.51.75-1.51 1.49s1.51.74 1.51 1.48-1.51.75-1.51 1.49 1.51.74 1.51 1.48-1.51.75-1.51 1.49 1.51.74 1.51 1.49-1.51.74-1.51 1.49 1.51.74 1.51 1.49-1.51.74-1.51 1.49" stroke-width="1.51" stroke-miterlimit="10" stroke-linecap="round" stroke="#7f6d25" fill="none"/><circle class="submarino_svg__submarino_svg__cls-5" cx="45.63" cy="47.85" r=".27"/><circle class="submarino_svg__submarino_svg__cls-5" cx="53.49" cy="47.85" r=".27"/><circle class="submarino_svg__submarino_svg__cls-5" cx="45.63" cy="53.89" r=".27"/><circle class="submarino_svg__submarino_svg__cls-5" cx="53.49" cy="53.89" r=".27"/><path class="submarino_svg__submarino_svg__cls-18" d="M46.26 49.92v2.13m1.65-3.57v5.01m1.65-5.75v6.48m1.65-5.37v4.26m1.66-3.1v1.95"/><circle class="submarino_svg__submarino_svg__cls-5" cx="99.9" cy="47.85" r=".27"/><circle class="submarino_svg__submarino_svg__cls-5" cx="107.76" cy="47.85" r=".27"/><circle class="submarino_svg__submarino_svg__cls-5" cx="99.9" cy="53.89" r=".27"/><circle class="submarino_svg__submarino_svg__cls-5" cx="107.76" cy="53.89" r=".27"/><path class="submarino_svg__submarino_svg__cls-18" d="M100.53 49.92v2.13m1.65-3.57v5.01m1.65-5.75v6.48m1.65-5.37v4.26m1.65-3.1v1.95"/><path class="submarino_svg__submarino_svg__cls-5" d="M101.19 33.75l-.33-.12c-.33-.12-.66-.22-1-.32l-.23-.07-1-.26h-.14l-.81-.16c-.38-.06-.81-.12-1.28-.17l-1.17-.09H69.32a14.78 14.78 0 00-1.19 5.86c0 8.57 7 15.21 15.72 15.51 10.59.36 17.71-5.67 17.71-17a12.54 12.54 0 00-.37-3.18zm-31 .58a1.36 1.36 0 010 .17.31.31 0 010 .08.42.42 0 00-.05-.25zm-.32 5.41a.36.36 0 000 .11.25.25 0 000 .12s-.01-.2-.05-.23zm2.1 5.66l.06.1.09.13zm5.71 5.06l-.11-.06h.16a1.15 1.15 0 00.14.2zm17.94-1.9l.15-.14.09-.08a3 3 0 00-.29.22zm3.8-5.83v-.24l-.05.24zm.93-5.5a.49.49 0 000-.12V37a2.09 2.09 0 00-.05.23z"/><path d="M100.32 36.49v.62a.49.49 0 010 .12 19 19 0 01-.76 5c0 .09-.05.17-.07.26v.24a13.37 13.37 0 01-2.55 4.55c-.17.2-.35.4-.53.59s-.32.32-.48.46l-.09.08-.15.14c-2.83 2.47-6.78 3.68-11.48 3.53a15.78 15.78 0 01-6.27-1.53l-.19-.1-.11-.05-.82-.4-.53-.32-.13-.08a14.53 14.53 0 01-4.09-4l-.07-.1-.06-.1c-.11-.17-.22-.34-.32-.51a1.09 1.09 0 01-.08-.15A13.61 13.61 0 0169.85 40a.25.25 0 010-.12.36.36 0 010-.11 1.2 1.2 0 010-.2 13 13 0 01-.1-1.66 13.66 13.66 0 01.39-3.29.31.31 0 000-.08 1.36 1.36 0 000-.17 2.17 2.17 0 00.07-.24 12 12 0 01.56-1.59h24.44l1.17.09c.47.05.9.11 1.28.17l.81.16h.14c.46.1.8.19 1 .26l.23.07a14.16 14.16 0 01.48 3.2z" fill="url(#submarino_svg__submarino_svg__Degradado_sin_nombre_6)"/><path d="M100.39 36.85v.22l-23 2.58.54.06 21.67 2.44a2.5 2.5 0 01-.07.26v.11l-22.1 2.49.54.06 19 2.13c-.17.2-.36.4-.54.59s-.32.32-.48.46l-.09.08-18.08 2h-.09l-.78-.33c-.19-.1-.37-.21-.54-.32l-.13-.08 15.69-1.77.54-.06-20.4-2.29a.53.53 0 01-.06-.1q-.18-.26-.33-.51c0-.05-.06-.1-.08-.15l20.3-2.29.54-.06-22.51-2.56a.2.2 0 010-.11v-.2L92.1 37h.35l-22.27-2.5a.59.59 0 000-.17.73.73 0 00.07-.24l14.19-1.59h9l-16.08 1.8.54.06z" fill="#cfb63e"/><path class="submarino_svg__submarino_svg__cls-15" d="M66.7 36.15v18.69h-.5V36.15a.24.24 0 01.25-.25.25.25 0 01.25.25zm-6.27 0v18.69h-.5V36.15a.25.25 0 01.5 0zm32.15.85h-.48l-21.92-2.46a.13.13 0 000-.08.59.59 0 000-.17l22.25 2.5a.15.15 0 01.15.21zm7.81 0v.24L78 39.71l-.67-.06a.11.11 0 01.11-.12l23-2.58zm-7.82 5.36h-.66l-22-2.48v-.12a.2.2 0 010-.11l22.54 2.54a.11.11 0 01.12.17zm6.97.09a.35.35 0 000 .11l-.06.13L78 45.11l-.7-.11a.09.09 0 01.09-.11l22.1-2.49zm-7.61 5.36l-19.77-2.22a1 1 0 01-.09-.13.53.53 0 01-.06-.1.07.07 0 01.06 0l21 2.35zm3.96.48l-.09.08s-.1.09-.14.14l-17.75 2-.3-.16a.1.1 0 01.09-.06l18.09-2a.11.11 0 01.1 0zm-2.28-15.83a.11.11 0 01-.11.12L78 34.32l-.66-.07a.1.1 0 01.11-.11l15-1.68z"/><circle cx="60.18" cy="34.83" r="1.58" fill="url(#submarino_svg__submarino_svg__Degradado_sin_nombre_28)"/><circle class="submarino_svg__submarino_svg__cls-5" cx="60.18" cy="34.83" r=".88"/><circle cx="66.41" cy="34.83" r="1.58" fill="url(#submarino_svg__submarino_svg__Degradado_sin_nombre_28-2)"/><circle class="submarino_svg__submarino_svg__cls-5" cx="66.41" cy="34.83" r=".88"/><rect x="2.12" y="55.72" width="257.82" height="148.39" rx="13.03" fill="url(#submarino_svg__submarino_svg__Degradado_sin_nombre_116)"/><rect x="2.12" y="55.72" width="254.18" height="144.75" rx="12.68" fill="url(#submarino_svg__submarino_svg__Degradado_sin_nombre_113)"/><rect class="submarino_svg__submarino_svg__cls-14" x="9.18" y="63.99" width="238.56" height="129.65" rx="8.87"/><rect x="10.57" y="62.27" width="237.18" height="129.65" rx="8.87" fill="url(#submarino_svg__submarino_svg__Degradado_sin_nombre_381)"/><path d="M219 212.72s0 8.8-7 9.2c-13.59.78-12.42-11.71-12.42-11.71m-5.83 2.51s3 16.37-6.49 16.38-7-20-7-20" stroke="#171615" stroke-width="4.37" stroke-miterlimit="10" fill="none"/><rect x="141.67" y="204.12" width="87.7" height="8.6" rx="3.66" transform="rotate(-180 185.525 208.415)" fill="url(#submarino_svg__submarino_svg__Degradado_sin_nombre_118)"/><rect class="submarino_svg__submarino_svg__cls-14" x="213.04" y="212.72" width="11.32" height="1.63" rx=".47" transform="rotate(180 218.7 213.53)"/><rect class="submarino_svg__submarino_svg__cls-14" x="188.23" y="212.72" width="11.32" height="1.63" rx=".48" transform="rotate(180 193.885 213.53)"/><path stroke="#af993c" stroke-width="1.25" stroke-miterlimit="10" stroke-linecap="round" fill="none" d="M144.64 208.42h79.72"/><circle class="submarino_svg__submarino_svg__cls-9" cx="149.08" cy="208.42" r="2.11"/><circle class="submarino_svg__submarino_svg__cls-9" cx="163" cy="208.42" r="2.11"/><circle class="submarino_svg__submarino_svg__cls-5" cx="248.51" cy="193.63" r="1.53"/><circle class="submarino_svg__submarino_svg__cls-5" cx="10.57" cy="193.63" r="1.53"/><path class="submarino_svg__submarino_svg__cls-29" d="M257.73 65.83l-.47 34.84 2.33-1.67a22.62 22.62 0 009.22-20.62l-2.45-23.67 17.54 13.5a14.87 14.87 0 0017.79.26l5.31-3.83-44.15.94c-2.28-1.18-4.93-2.28-5.12.25z"/><path class="submarino_svg__submarino_svg__cls-14" d="M249.37 72.81c-.82.34-1.63.67-2.44 1 .07-.84.15-1.68.23-2.51l-2.49.91c-.15-1-.28-2-.4-3-.65-.24-1.29-.51-1.94-.82-.33-1.79-.62-3.65-.84-5.57a38.18 38.18 0 016.95-11.38c1.8.62 3.56 1.26 5.28 1.89a24.9 24.9 0 00.75 2.89c1.29.72 2.58 1.38 3.89 2-.24.9-.43 1.79-.58 2.67a11.25 11.25 0 001.83 2.53c-.54.86-1.05 1.76-1.54 2.71a37.06 37.06 0 00-8.7 6.68z"/><path class="submarino_svg__submarino_svg__cls-30" d="M247.16 71.28a32.27 32.27 0 0110.62-10.43m-13.35 7.97a34.5 34.5 0 0110-12.62"/><path class="submarino_svg__submarino_svg__cls-31" d="M247.15 73.44c4.26-5.8 9-9.33 13.44-11.2m-15.7 9.54c3.91-6.93 8.6-11.16 13.11-13.47m-15.5 9.6c2.95-6.68 6.77-11.3 10.85-14.36"/><path class="submarino_svg__submarino_svg__cls-29" d="M407.77 132c-2.27-66-84.41-70.61-84.41-70.61-17.15 0-41.76 38.94-54.58 27.85-6.78-5.85-30.45-8.92-29.91 10.76a11.74 11.74 0 0011.82 11.43h.33a70 70 0 00-4 23.3v5.91a4.67 4.67 0 00-3.3 4.29 4.52 4.52 0 003.94 4.36 70.6 70.6 0 007.73 23.76c14.54 27.19 45.33 42.64 76.91 39 .04.04 78.24.57 75.47-80.05z"/><path fill="url(#submarino_svg__submarino_svg__Degradado_sin_nombre_282)" d="M389.62 35.36h5.6v5.15h-5.6z"/><rect x="375.67" y="31.72" width="33.5" height="4.44" rx="1.89" fill="url(#submarino_svg__submarino_svg__Degradado_sin_nombre_270)"/><path class="submarino_svg__submarino_svg__cls-34" d="M452.56 61.94l16.15-16.5a2.56 2.56 0 012.46-.71l16.89 4a12.71 12.71 0 019.7 11C498.86 70 499.91 86.1 496.6 93c-5 10.49-7.76 5.7-7.76 5.7l-39.24-34z"/><path d="M472.89 44.82l19.57 4.67a7.23 7.23 0 015.5 6.14c1.18 9.36 3.1 29.32-.68 37.23-5 10.49-7.76 5.7-7.76 5.7L454.27 68z" fill="url(#submarino_svg__submarino_svg__Degradado_sin_nombre_167)"/><path class="submarino_svg__submarino_svg__cls-14" d="M316.31 23.62c.25 10.1.48 20.2.56 30.3l.06 8.69a7.69 7.69 0 002.18 5.27 7.46 7.46 0 0010.54 0 7.72 7.72 0 002.18-5.27c-.06-9.13-.14-18.27-.34-27.4l-.28-11.59a7.53 7.53 0 00-1.6-4.51 7 7 0 00-3.87-2.67c-2.9-.56-7.61 9.56-9.43 7.18z"/><path d="M264.16 47.85l33.79 16-2.86 8.15-25.86 15.54s-2.56-7.41-2.38-8.42-2.69-31.27-2.69-31.27z" stroke="#bda72c" stroke-width="1.85" stroke-miterlimit="10" fill="#bda72c"/><ellipse cx="392.95" cy="55.89" rx="28.91" ry="15.83" fill="url(#submarino_svg__submarino_svg__Degradado_sin_nombre_157)"/><path d="M509.4 132.75c0 .37 0 .74-.09 1.1a76.59 76.59 0 01-72.51 69.75c-3 .14-6 .38-9 .74l-92.44 11a75.82 75.82 0 01-85.36-75.2v-5.21a76.54 76.54 0 0176.32-76.32h106.95a76.6 76.6 0 0175.26 63.63c.4 2.33.68 4.69.86 7.09a15.05 15.05 0 01.01 3.42z" fill="url(#submarino_svg__submarino_svg__Degradado_sin_nombre_237)"/><path d="M259.94 43.65v53.8l2.33-1.68a22.61 22.61 0 009.21-20.62L269 51.48 286.58 65a14.87 14.87 0 0017.79.26l5.28-3.83-44.54-20.64a3.54 3.54 0 00-5.17 2.86z" fill="url(#submarino_svg__submarino_svg__Degradado_sin_nombre_73)"/><path d="M335.64 215.38h-.31a76.44 76.44 0 01-76.91-40.58 75.64 75.64 0 01-8.42-34.66v-5.21a76.58 76.58 0 0163.63-75.25 73.4 73.4 0 0110.23-1h2.46s82.14 4.81 84.41 73.41c2.71 80.76-69.73 83.22-75.09 83.29z" fill="url(#submarino_svg__submarino_svg__Degradado_sin_nombre_113-2)"/><ellipse class="submarino_svg__submarino_svg__cls-14" cx="322.55" cy="141.22" rx="65.82" ry="63.15"/><path d="M374.48 51.48h49.13a3.3 3.3 0 013.3 3.3v3.83h-53a2.77 2.77 0 01-2.77-2.77v-1.06a3.3 3.3 0 013.34-3.3z" fill="url(#submarino_svg__submarino_svg__Degradado_sin_nombre_247)"/><path class="submarino_svg__submarino_svg__cls-14" d="M509.4 132.75c0 .37 0 .74-.09 1.1-12.88 9-32.77 7.9-47.39 7.71-24.74-.33-49.5.67-74.24.1-5.95-.14-5.95-9.39 0-9.25 22.47.52 44.94-.67 67.41-.22 10.41.22 20.91.5 31.28-.65 7.05-.78 16.54-2.23 21.17-8.31a4.88 4.88 0 011-1c.4 2.33.68 4.69.86 7.09a15.05 15.05 0 010 3.43z"/><path fill="#88bfd6" d="M314.94 82.85h12.11v116.69h-12.11z"/><path class="submarino_svg__submarino_svg__cls-14" d="M417.27 61.88c14 17.7 19.62 39.76 22.91 61.65 3.82 25.36 0 52.13-7.45 76.47-1.75 5.7 7.17 8.14 8.91 2.45 8-26 11.55-54.32 7.46-81.38-3.59-23.72-10.22-46.62-25.29-65.73-3.68-4.67-10.18 1.91-6.54 6.54zm-165.89 88.29l8.08.51a4.67 4.67 0 004.63-4.62 4.72 4.72 0 00-4.63-4.63l-8.08-.51a4.63 4.63 0 000 9.25zm84.26 65.21h-.31a76.58 76.58 0 01-10.67.53 46.76 46.76 0 01-11-13.17c-3-5.14 5-9.79 8-4.67s6.63 9.74 11.82 12.7a4.19 4.19 0 012.16 4.61zM322.18 64.39c-5.84 4-8.25 12.53-10.08 19-1.63 5.73-10.55 3.28-8.92-2.45 2.15-7.52 5-15.51 10.49-21.21q2.79-.48 5.64-.74c.5 0 1-.09 1.51-.12 1-.08 2.05-.13 3.08-.16a4.71 4.71 0 01-1.72 5.68z"/><circle cx="325.21" cy="141.22" r="58.37" fill="#d2f5f9"/><circle cx="314.94" cy="141.22" r="58.37" fill="#fff"/><path class="submarino_svg__submarino_svg__cls-14" d="M373 39.1l5.59 36.95-4.35 1.13s-10.73-9.48-28.78-13.39c-20.25-3.39 2.15-4.61 3.09-5S373 39.1 373 39.1z"/><path d="M374.14 33.25l-42.31 28.43a1.45 1.45 0 00.31 2.56 22.58 22.58 0 0022.25-3.85l18.28-15.23-1.44 22.1A14.87 14.87 0 00381 82.18l1.94.72a2.61 2.61 0 003.46-2.9l-7-44.09a3.53 3.53 0 00-5.26-2.66z" fill="url(#submarino_svg__submarino_svg__Degradado_sin_nombre_73-2)"/><path d="M419.3 172.2l45.7-3.32a26.46 26.46 0 0116.38 4.27 5.81 5.81 0 012.11 2.39c.52 1.1.7 2.42-.92 3.06-13.63 5.36-52.61 12-65.36 7.3-5.85-2.13-2.97-13.17 2.09-13.7z" fill="url(#submarino_svg__submarino_svg__Degradado_sin_nombre_236)"/><path class="submarino_svg__submarino_svg__cls-34" d="M421.28 175.19l42.72-2.94a29.46 29.46 0 0116.14 3.43l35 18.92c7.61 5.3 4.55 10.08-5.38 13.42-9.22 3.1-27.61 3.14-42-1.24-24-7.29-33.87-16.24-47.53-23-4.51-2.23-1.47-8.42 1.05-8.59z"/><path d="M519 198.71c-1.34-3.22-17.41-1.13-27 1.61-5.85 1.67-10.15 3.66-12.51 5.36-33.89-7.56-60.85-28.62-61.3-27.3-.65 1.92-.39 4.21 2 5.39 13.66 6.77 23.54 15.72 47.53 23a76.69 76.69 0 0011.37 2.48 88.54 88.54 0 0022.21.48c1.56-.18 3-.41 4.41-.68l.41-.09c.51-.11 1-.22 1.47-.34l.48-.13c.57-.15 1.14-.31 1.66-.49 7.27-2.43 10.83-5.63 9.27-9.29z" fill="url(#submarino_svg__submarino_svg__Degradado_sin_nombre_116-2)"/><path class="submarino_svg__submarino_svg__cls-5" d="M322.86 202.45h-.16a.8.8 0 000 1.59h.17v-.8zm-8.82-.39h-.19a.73.73 0 00-.48.11.79.79 0 00-.4.59.8.8 0 00.7.89h.33a.69.69 0 00.25 0 .79.79 0 00-.16-1.54zm17.68-.39h-.19a.78.78 0 00-.65.9.81.81 0 00.8.68h.29a.79.79 0 10-.25-1.57zm-26.4-1.19h-.19a.8.8 0 00-1 .58.81.81 0 00.58 1h.19a.64.64 0 00.2 0 .8.8 0 00.19-1.57zm36-.23a.79.79 0 00-1-.54h-.19a.8.8 0 00.23 1.56.91.91 0 00.23 0h.18a.79.79 0 00.59-1.02zm8.36-3.26a.81.81 0 00-1.06-.4l-.17.08a.8.8 0 00.33 1.53.88.88 0 00.32-.07l.19-.09a.79.79 0 00.43-1.04zm7.83-4.37a.79.79 0 00-1.1-.25l-.16.1a.81.81 0 00-.25 1.1.8.8 0 00.68.37.81.81 0 00.42-.12l.17-.11a.78.78 0 00.28-1.09zm7.15-5.42a.8.8 0 00-1.12-.09l-.15.13a.78.78 0 00-.09 1.12.79.79 0 001.12.09l.15-.12a.81.81 0 00.13-1.13zm6.32-6.36a.8.8 0 00-1.13.07l-.12.14a.79.79 0 00.06 1.13.81.81 0 00.53.2.8.8 0 00.6-.27l.13-.14a.8.8 0 00-.05-1.13zm5.35-7.2a.81.81 0 00-1.11.23l-.1.16a.8.8 0 00.22 1.1.79.79 0 001.11-.22l.11-.17a.8.8 0 00-.19-1.1zm4.24-7.9a.8.8 0 00-1.06.39l-.08.17a.81.81 0 00.39 1.06.78.78 0 00.33.07.81.81 0 00.73-.46l.08-.18a.79.79 0 00-.35-1.05zm3-8.45a.8.8 0 00-1 .54l-.05.19a.8.8 0 00.54 1 .83.83 0 00.22 0 .81.81 0 00.77-.57l.05-.2a.79.79 0 00-.47-.96zm1.71-8.81a.8.8 0 00-.9.68v.2a.8.8 0 00.69.89h.1a.81.81 0 00.79-.7v-.19a.79.79 0 00-.62-.88zm.35-9.09a.79.79 0 00-.78.81v.32a.54.54 0 000 .22.8.8 0 00.76.56h.14a.79.79 0 00.62-.79v-.33a.79.79 0 00-.68-.79zm-.08-8.27a.8.8 0 00-1.57.27v.2a.8.8 0 00.78.66h.14a.8.8 0 00.65-.92zm-2.18-8.62l-.07-.19a.79.79 0 10-1.5.52l.06.18a.79.79 0 00.75.54.69.69 0 00.25 0 .8.8 0 00.57-1.05zm-3.52-8.37l-.09-.18a.8.8 0 00-1.42.74l.09.17a.8.8 0 001.42-.73zm-4.73-7.76l-.11-.16a.8.8 0 00-1.3.93l.11.16a.81.81 0 00.65.33.82.82 0 00.47-.15.8.8 0 00.24-1.11zm-5.8-7l-.14-.15a.8.8 0 10-1.15 1.11l.14.14a.78.78 0 00.57.24.77.77 0 00.55-.22.79.79 0 00.09-1.1zm-6.75-6.1l-.15-.12a.81.81 0 00-1.12.14.8.8 0 00.14 1.12l.15.12a.83.83 0 00.49.17.8.8 0 00.49-1.43zm-7.53-5.08l-.17-.1a.79.79 0 00-1.08.29.8.8 0 00.29 1.09l.17.1a.79.79 0 00.39.11.82.82 0 00.7-.4.81.81 0 00-.24-1.07zM295 85.67a.81.81 0 00-1.06-.39l-.18.08a.79.79 0 00-.39 1 .72.72 0 00.42.4.59.59 0 00.29.07.75.75 0 00.33-.07l.18-.08a.81.81 0 00.37-.36.73.73 0 00.04-.65zm52-1.46l-.18-.07a.8.8 0 00-.6 1.48l.18.07a.8.8 0 10.6-1.48zm-43.53-1.57a.81.81 0 00-.43-.49.73.73 0 00-.56-.05l-.19.06a.79.79 0 00-.53 1 .8.8 0 00.76.57.66.66 0 00.23 0l.18-.05a.87.87 0 00.3-.17.81.81 0 00.18-.87zm34.9-1.26h-.19a.8.8 0 00-.38 1.55l.18.05h.2a.8.8 0 00.19-1.57zm-27.06-1.26h-.17a.8.8 0 00.12 1.59h.32a.79.79 0 00.65-.91.81.81 0 00-.98-.68zm18.13-.37h-.19a.8.8 0 10-.18 1.58h.29a.8.8 0 00.08-1.59zm-9.06-.42h-.2a.79.79 0 00-.78.81.81.81 0 00.8.78h.21a.8.8 0 000-1.59zM323 202.45h-.17v.8l.05.79h.12a.8.8 0 000-1.59zm2.8 6.81l-.12-.13a.78.78 0 00-1.14 1.07l.14.14a.77.77 0 00.56.24.77.77 0 00.56-1.32zm-6.31-6.79l-.12-.14a.69.69 0 00-.24-.18.8.8 0 00-.87.11.78.78 0 00-.06 1.1l.12.14a.87.87 0 00.22.17.69.69 0 00.37.1.81.81 0 00.52-.2.78.78 0 00.06-1.1zm1.33-143.65c-.27 0-.54 0-.8.06l-.71.06a.78.78 0 00.7 1.12.84.84 0 00.52-.18.79.79 0 00.39-.68.8.8 0 00-.1-.38zm-6.16 6.89a.78.78 0 00-1.08.23l-.11.17a.79.79 0 00.25 1.08.79.79 0 001.07-.26l.1-.15a.77.77 0 00-.23-1.07zM310.39 74a.77.77 0 00-1 .47l-.07.18a.8.8 0 00.47 1 .84.84 0 00.27 0 .78.78 0 00.73-.51l.07-.18a.79.79 0 00-.47-.96z"/><path class="submarino_svg__submarino_svg__cls-48" d="M420.47 57.15v.07"/><path d="M425 63.76c5.14 8.15 13.27 23.14 16.89 41.08" stroke-dasharray=".17 7.94" stroke-width="2.52" stroke-linejoin="round" stroke-linecap="round" stroke="#7f6d25" fill="none"/><path class="submarino_svg__submarino_svg__cls-48" d="M442.58 108.75v.08"/><path d="M446.1 161.66s-.22 7.55-.89 9.74" stroke-dasharray=".17 8.07" stroke-width="2.52" stroke-linejoin="round" stroke-linecap="round" stroke="#7f6d25" fill="none"/><path class="submarino_svg__submarino_svg__cls-5" d="M464.12 136.1H464a1.26 1.26 0 000 2.52h.18a1.26 1.26 0 000-2.52zm8.27-.07h-.23a1.26 1.26 0 00-.35 2.46 1.21 1.21 0 00.38.06h.19a1.27 1.27 0 000-2.53zM390 136h-.18a1.26 1.26 0 000 2.52h.18a1.26 1.26 0 000-2.52zm65.93 0h-.2a1.27 1.27 0 000 2.53h.19a1.26 1.26 0 000-2.52zm-57.7 0H398a1.26 1.26 0 000 2.52h.18a1.26 1.26 0 000-2.52zm8.25-.08h-.18a1.26 1.26 0 000 2.52h.18a1.26 1.26 0 000-2.52zm41.2 0h-.19a1.26 1.26 0 000 2.52h.18a1.26 1.26 0 000-2.52zm-33-.06h-.17a1.26 1.26 0 000 2.52h.16a1.26 1.26 0 100-2.52zm24.72 0h-.16A1.23 1.23 0 00438 137a1.26 1.26 0 001.25 1.27h.18a1.26 1.26 0 000-2.52zm-16.49 0h-.16a1.18 1.18 0 00-.78.28 1.25 1.25 0 00.51 2.21.84.84 0 00.27 0h.18a1.26 1.26 0 001.25-1.28 1.29 1.29 0 00-1.26-1.32zm8.84.15a1.18 1.18 0 00-.59-.15H431a1.26 1.26 0 100 2.52h.17a1.27 1.27 0 001-.55 1.25 1.25 0 00-.45-1.82zm48.74-.21h-.16a1.26 1.26 0 00.08 2.52h.26a1.26 1.26 0 00-.18-2.52zm8.13-.78h-.17a1.26 1.26 0 00.16 2.51h.33a1.26 1.26 0 10-.32-2.5zm8.08-1.6h-.17a1.26 1.26 0 00.17 2.51h.33a1.26 1.26 0 10-.33-2.5zm8.73-2.68a1.27 1.27 0 00-1.76-.3l-.13.09a1.26 1.26 0 001.43 2.07l.15-.1a1.27 1.27 0 00.32-1.87z"/><circle class="submarino_svg__submarino_svg__cls-14" cx="447.18" cy="131.38" r="25.64"/><circle cx="447.13" cy="131.56" r="22.53" stroke-width="1.51" stroke-dasharray=".18 8.84" stroke-linejoin="round" stroke-linecap="round" stroke="#7f6d25" fill="none"/><circle cx="447.18" cy="131.38" r="20.57" fill="url(#submarino_svg__submarino_svg__Degradado_sin_nombre_377)"/><path d="M470.63 131.38c0 11.36-8.31 20.57-19.67 20.57s-19.66-9.21-19.66-20.57 8.31-20.56 19.66-20.56 19.67 9.18 19.67 20.56z" fill="#e5d47e"/><ellipse cx="318.25" cy="202.09" rx=".88" ry="1.68" stroke="#bda72c" stroke-width="1.85" stroke-miterlimit="10" fill="none"/><path d="M325.17 16.24L287 1l-5.27 28.8 41.15.53h.41c4.32-.17 7.8-3.57 7.8-7.53.02-2.95-2.62-5.7-5.92-6.56z" fill="#d7c333"/><circle cx="281.73" cy="14.89" r="12.69" fill="url(#submarino_svg__submarino_svg__Degradado_sin_nombre_290)"/><path d="M289.47 7.83c.13.13.25.27.36.4a5.47 5.47 0 00-.45-.51zm5.62.49c-.13-.26-.26-.52-.41-.77a5.58 5.58 0 00-.32-.52.58.58 0 00-.11-.18c-.09-.15-.19-.29-.29-.44a4.22 4.22 0 00-.27-.36c-.08-.12-.17-.24-.26-.35s-.31-.39-.48-.58l-.24-.27a9.08 9.08 0 00-.76-.76 8.74 8.74 0 00-.55-.51l-.11-.09c-.24-.2-.49-.4-.74-.58s-.56-.4-.85-.58-.58-.36-.88-.52-.61-.32-.92-.46h-.12l-.61-.35a.47.47 0 00-.17 0l-.36-.13c-.23-.09-.46-.16-.69-.23-.33-.1-.66-.18-1-.25s-.69-.14-1-.19a8.39 8.39 0 00-.86-.1 1.51 1.51 0 00-.3 0 .55.55 0 00-.18 0h-.78a14.91 14.91 0 00-14.89 14.89 14 14 0 00.09 1.6v.33a2.9 2.9 0 00.06.41c0 .14.05.27.07.41a14.32 14.32 0 00.58 2.16 2.49 2.49 0 00.11.29 15.23 15.23 0 00.62 1.44 14.89 14.89 0 0013.32 8.25 14.89 14.89 0 0013.3-21.56zm-12.53 17h-.83a10.5 10.5 0 01-9.82-6.82v-.08c-.06-.18-.13-.36-.18-.54s-.1-.33-.14-.5a10.26 10.26 0 01-.32-2.56A10.51 10.51 0 01281.73 4.4h.81a9.53 9.53 0 011.09.15q.38.06.72.15l.35.1.36.12a1.43 1.43 0 01.27.09l.44.17.44.2a4.16 4.16 0 01.47.24 5.82 5.82 0 01.6.34l.16.1c.2.13.39.26.57.4l.39.31a5.73 5.73 0 01.45.39 2.76 2.76 0 01.3.29 1.59 1.59 0 01.13.13l.1.11.09.11c.13.13.25.27.36.4l.3.38a10.64 10.64 0 01.66 1 10.49 10.49 0 01-8.23 15.76z" fill="#c5af2f"/><path class="submarino_svg__submarino_svg__cls-58" d="M290.67 9.73c2.52 5.15-4.27 2.52-9.42 5s-6.7 9.27-9.25 4.1a10.37 10.37 0 1118.64-9.1z"/><path class="submarino_svg__submarino_svg__cls-34" d="M281.73 4.4a10.49 10.49 0 019.06 5.2c1.42-.47 2.85-.9 4.3-1.28a14.89 14.89 0 10-26.68 13.21c.29-.07.58-.12.87-.17a29.48 29.48 0 012.66-2.7 10.49 10.49 0 019.79-14.26z"/><circle class="submarino_svg__submarino_svg__cls-5" cx="341.94" cy="63.65" r=".84"/><circle class="submarino_svg__submarino_svg__cls-5" cx="335.16" cy="62.81" r=".84"/><circle class="submarino_svg__submarino_svg__cls-5" cx="383.65" cy="80.93" r=".84"/><circle class="submarino_svg__submarino_svg__cls-5" cx="377.66" cy="77.65" r=".84"/><path d="M273.09 75.51a9.32 9.32 0 011.91-3.9 15.84 15.84 0 013.1-3 16.69 16.69 0 013.75-2.06 10.27 10.27 0 014.27-.75c-1.13 1-2.18 1.78-3.24 2.61s-2.12 1.6-3.19 2.37zm-1.32-6.77a6.74 6.74 0 01.93-2.74 7.6 7.6 0 011.93-2.19 7.11 7.11 0 012.68-1.27 6.48 6.48 0 012.94 0 12.64 12.64 0 01-2.05 1.94l-1.94 1.49c-.63.48-1.28 1-2 1.47a11.69 11.69 0 01-2.49 1.3zm-.68-6.85a2.71 2.71 0 01.39-1.94 3.88 3.88 0 011.2-1.25 3.81 3.81 0 011.64-.6 2.39 2.39 0 011.94.51c-.46.59-.69 1-1 1.4a5.32 5.32 0 01-1.08.94 4.93 4.93 0 01-1.31.61 11 11 0 01-1.78.33zm-.82-5.53a1.67 1.67 0 01-.15-1.27 1.17 1.17 0 01.62-.7 1.28 1.28 0 011 0 1.32 1.32 0 01.78 1.07 3.76 3.76 0 00-.47 1c-.07.22-.12.33-.22.37a.71.71 0 01-.47-.06c-.23-.06-.54-.19-1.09-.41zm99.47 13.28l-7.38-3.33c-1.19-.55-2.39-1.12-3.58-1.72s-2.4-1.2-3.69-1.92a10.05 10.05 0 014.33-.09 16.57 16.57 0 014.08 1.29 15.61 15.61 0 013.61 2.31 9.28 9.28 0 012.63 3.46zm.39-6.64a11.79 11.79 0 01-2.69-.89c-.8-.37-1.52-.74-2.23-1.09L363 59.85a13.41 13.41 0 01-2.36-1.55 6.45 6.45 0 012.9-.5 7.05 7.05 0 012.86.77 7.53 7.53 0 012.29 1.81 6.91 6.91 0 011.44 2.62zm.56-6.8a11 11 0 01-1.77-.11 4.75 4.75 0 01-1.38-.44 5.29 5.29 0 01-1.18-.79c-.39-.34-.67-.74-1.2-1.26a2.4 2.4 0 011.85-.76 3.75 3.75 0 011.71.4 3.9 3.9 0 011.35 1.09 2.64 2.64 0 01.62 1.87zm.81-5.83c-.57.18-.88.29-1.12.35a.68.68 0 01-.48 0c-.09 0-.14-.16-.19-.38a3.39 3.39 0 00-.4-1 1.3 1.3 0 01.85-1 1.2 1.2 0 011 .06 1.15 1.15 0 01.58.74 1.64 1.64 0 01-.24 1.23z" fill="#3d3411"/><path d="M473.28 61.58l13.72-1a7 7 0 014.94 1.63 2.11 2.11 0 01.64.89c.16.4.22.89-.27 1.11-4.07 1.92-15.77 4.2-19.61 2.45-1.77-.85-.94-4.9.58-5.08z" fill="url(#submarino_svg__submarino_svg__Degradado_sin_nombre_228)"/><path class="submarino_svg__submarino_svg__cls-34" d="M473.88 62.69l12.84-.92a7.64 7.64 0 014.86 1.31l10.59 7.08c2.31 2 1.4 3.72-1.57 4.91-2.76 1.11-8.29 1.05-12.63-.61-7.24-2.76-10.24-6.09-14.38-8.62-1.35-.84-.46-3.1.29-3.15z"/><path d="M503.35 71.68c-.42-1.18-5.24-.47-8.11.5a11.55 11.55 0 00-3.73 1.92c-10.22-2.9-18.4-10.73-18.53-10.25a1.7 1.7 0 00.61 2c4.14 2.53 7.14 5.86 14.38 8.62a20.33 20.33 0 003.42 1c.36.07.71.12 1.06.17l.49.06.64.07c.3 0 .59 0 .89.06h3.39c.27 0 .52-.06.77-.11h.21c.27 0 .52-.11.76-.17l.22-.06c.27-.08.52-.16.75-.25 2.21-1.04 3.25-2.24 2.78-3.56z" fill="url(#submarino_svg__submarino_svg__Degradado_sin_nombre_116-3)"/><ellipse class="submarino_svg__submarino_svg__cls-14" cx="385.72" cy="140.59" rx="1.41" ry="1.63"/><path d="M254.63 86.88c6.8 0 11.09 2.37 13.14 5.91a10.8 10.8 0 011.34 4.13 13.89 13.89 0 010 3.22 12.4 12.4 0 01-3.57 6.83 13.71 13.71 0 01-2.35 1.67 16.61 16.61 0 01-9.48 2z" fill="url(#submarino_svg__submarino_svg__Degradado_sin_nombre_329)"/><ellipse cx="253.69" cy="98.77" rx="11.83" ry="11.89" fill="url(#submarino_svg__submarino_svg__Degradado_sin_nombre_73-3)"/><ellipse cx="253.69" cy="98.77" rx="9.48" ry="9.53" fill="url(#submarino_svg__submarino_svg__Degradado_sin_nombre_289)"/><path class="submarino_svg__submarino_svg__cls-58" d="M263.17 98.77c0 5.26-4.24-1.65-9.48-1.65s-9.48 6.91-9.48 1.65a9.48 9.48 0 1119 0z"/><path d="M388.91 86.85c10.89 0 15.34 6.08 14.46 13.25a12.37 12.37 0 01-3.57 6.84 16.23 16.23 0 01-11.8 3.68z" fill="url(#submarino_svg__submarino_svg__Degradado_sin_nombre_329-2)"/><ellipse cx="387.98" cy="98.73" rx="11.83" ry="11.89" fill="url(#submarino_svg__submarino_svg__Degradado_sin_nombre_73-4)"/><ellipse cx="387.98" cy="98.73" rx="9.48" ry="9.53" fill="url(#submarino_svg__submarino_svg__Degradado_sin_nombre_289-2)"/><path class="submarino_svg__submarino_svg__cls-58" d="M397.46 98.73c0 5.27-4.25-1.64-9.48-1.64s-9.48 6.91-9.48 1.64a9.48 9.48 0 0118.18-3.79 9.62 9.62 0 01.78 3.79z"/><path d="M276.59 206a5.59 5.59 0 01.31-2.08 1 1 0 01-.17.2l-5.27-4.34a7.09 7.09 0 00-1.68 2.29c-1 2.26-1 5-.92 7.69a26 26 0 01-.09 4.07 32.7 32.7 0 01-4.39-1.09c-3.78-1.16-7.69-2.4-11.13-.59s-4.81 6-6 10.09a36.91 36.91 0 01-1.51 4.42 24.54 24.54 0 01-4.09-2.24c-3.22-2.07-6.58-4.24-10.21-3-4.12 1.43-6.33 6.16-8.28 10.38a38.59 38.59 0 01-2.2 4.37c-1.49-.22-4.46-2.9-5.65-4-2.75-2.55-4.92-4.58-8-3.63-3.89 1.24-5.73 4.3-7.74 8.81-.39.91-.95 2.17-1.45 3.19-.69-1-1.48-2.37-2-3.34-2-3.54-4.08-5.36-7.45-5.41-3.77-.08-6.85 2.16-10 5.89-.56.66-1.27 1.5-1.92 2.22-.11-1.29-.14-2.9-.17-4-.1-4.44-.41-7.07-2.89-9.13-2.89-2.44-7.22-1.23-11.42-.05-.82.23-1.88.54-2.78.75.49-.78 1.18-1.7 1.67-2.36a24.15 24.15 0 004-6.84 11 11 0 00.46-5.18l-7.6 2.28c.08.59-1.73 3-2.42 3.88l-.23.3c-2.35 3.18-6.28 8.85-2.93 14.9 2.17 3.86 6.82.93 11.1-.4a29.68 29.68 0 015.1-1.24c.15 1.14.2 3.1.23 4.5.13 5.44.53 7.92 4.86 9.19 3.72 1.05 6.79.7 10-3.16a43.86 43.86 0 013.73-4.05 37.22 37.22 0 011.94 3.25c2.2 3.92 4.94 5.88 9.34 4.89h.07c3.89-.91 5.64-3.07 7.59-7.47.55-1.21 1.34-3 2-4.19.5.43 1.05.95 1.52 1.37 3.37 3 7.33 8.33 12.47 6.57 3.75-1.27 5.6-5.33 7.57-9.59a31.91 31.91 0 012.89-5.3 26 26 0 013.86 2.15c3.4 2.12 7.27 4.46 11.37 2.52s5.25-6.17 6.49-10.34a28.56 28.56 0 011.76-4.76 29 29 0 014.64 1.08c4.16 1.19 8.46 2.35 12.1-.22s3.55-6.58 3.47-10.52c.02-.81.01-1.82.05-2.73z" fill="#655822"/><path d="M276.59 206a5.59 5.59 0 01.31-2.08 1 1 0 01-.17.2l-5.27-4.34a7.09 7.09 0 00-1.68 2.29c-1 2.26-1 5-.92 7.69a26 26 0 01-.09 4.07 32.7 32.7 0 01-4.39-1.09c-3.78-1.16-7.69-2.4-11.13-.59s-4.81 6-6 10.09a36.91 36.91 0 01-1.51 4.42 24.54 24.54 0 01-4.09-2.24c-3.22-2.07-6.58-4.24-10.21-3-4.12 1.43-6.33 6.16-8.28 10.38a38.59 38.59 0 01-2.2 4.37c-1.49-.22-4.46-2.9-5.65-4-2.75-2.55-4.92-4.58-8-3.63-3.89 1.24-5.73 4.3-7.74 8.81-.39.91-.95 2.17-1.45 3.19-.69-1-1.48-2.37-2-3.34-2-3.54-4.08-5.36-7.45-5.41-3.77-.08-6.85 2.16-10 5.89-.56.66-1.27 1.5-1.92 2.22-.11-1.29-.14-2.9-.17-4-.1-4.44-.41-7.07-2.89-9.13-2.89-2.44-7.22-1.23-11.42-.05-.82.23-1.88.54-2.78.75.49-.78 1.18-1.7 1.67-2.36a24.15 24.15 0 004-6.84 11 11 0 00.46-5.18l-7.6 2.28c.08.59-1.73 3-2.42 3.88l-.23.3a20.91 20.91 0 00-4 7.85c-.45 2.19 0 2.73.16 2.95 1.76 2.41 5.39 1.13 11-.32 1-.26 4.16-1.14 5.83-1.49.89-.19 2.34.15 2.28 1.43-.06 1.12.1 5.57.12 6.45.13 5.44 1.11 4.94 2.19 5.77 2.54 2 6.6 1 9.83-2.88.85-1 2.5-2.55 3.49-3.74a1.25 1.25 0 011.88 0c.65 1 1.37 2.61 1.8 3.38 2.21 3.93 5 6 8.43 5.57 3.47.06 7.19-9.31 8.69-12.42a.73.73 0 011.15-.25l3.15 2.85c3.36 3.06 7.31 6.44 10.14 5.68 3.81-1 5.56-6.4 7.53-10.66.56-1.19 1.46-3.08 2.23-4.36a1.31 1.31 0 011.7-.47c.92.49 2 1.19 2.82 1.68 3.4 2.12 8.78 4.71 11.4 3.57s4.86-7.19 6.1-11.36c.34-1.09.7-2.52 1.18-3.66a2 2 0 011.87-1c1.13.23 2.86.86 3.87 1.15 4.16 1.18 9.61 1.79 11.77.94a8.41 8.41 0 004.64-7.56c-.06-.73-.07-1.74-.03-2.65z" fill="url(#submarino_svg__submarino_svg__Degradado_sin_nombre_142)" opacity=".62"/><rect class="submarino_svg__submarino_svg__cls-14" x="150.41" y="212.71" width="18.5" height="6.75" rx="1.94"/><rect class="submarino_svg__submarino_svg__cls-14" x="267.4" y="198.28" width="18.5" height="6.75" rx="2.87" transform="rotate(38.44 276.668 201.683)"/><path class="submarino_svg__submarino_svg__cls-14" d="M10.52 71.48c.85-.66 1.72-1.28 2.59-1.86q-.16-.6-.3-1.26c.92-.45 1.84-.86 2.76-1.25.14-.5.29-1 .46-1.52.72-.37 1.43-.71 2.14-1 .4-.73.81-1.44 1.24-2.13a13.89 13.89 0 01-2.58-6.83c-1.6-.68-3.24-1.38-4.9-2.11a32.07 32.07 0 00-2.56 2.06c-1.57 0-3.18 0-4.8.18-.38 1.63-.68 3.28-.91 4.95A30.32 30.32 0 000 63.43c.35 2.2.78 4.3 1.26 6.27a16.06 16.06 0 009.26 1.78z"/><path class="submarino_svg__submarino_svg__cls-30" d="M12.81 68.36c-3.4-1-6.48-3.6-9.15-7.67m12.2 4.8c-2.81-1.86-5.07-5.28-6.49-9.93"/><path class="submarino_svg__submarino_svg__cls-31" d="M12.86 69.63c-4.49 0-8.63-1.92-12.49-5.83m14.95 3.27c-4.21-1.31-7.81-5.07-10.5-10.9M18 64.45c-2.86-2-5-5.62-6-10.51"/><circle class="submarino_svg__submarino_svg__cls-5" cx="253.09" cy="145.55" r=".83"/><path d="M470.63 131.38c0 11.36-8.31 20.57-19.67 20.57s-19.66-9.21-19.66-20.57 8.31-20.56 19.66-20.56 19.67 9.18 19.67 20.56z" style="mix-blend-mode:screen" opacity=".14" fill="url(#submarino_svg__submarino_svg__Degradado_sin_nombre_378)"/><path class="submarino_svg__submarino_svg__cls-72" d="M441.21 122.82l2.25-.94.88 2.13-3.46 1.05.33-2.24z"/><path class="submarino_svg__submarino_svg__cls-72" d="M460.75 123.69c0-.78-1-1.29-1.89-1l-3.27 1.18a10 10 0 00-9.78 0l-3.27-1.18c-.89-.31-1.89.2-1.89 1v8.98a10 10 0 0020.1 0v-.55z"/><path d="M463.32 122.87c0-.8-1-1.33-1.94-1l-3.38 1.21a10.27 10.27 0 00-10 0l-3.36-1.21c-.91-.33-1.94.2-1.94 1v9.23a10.32 10.32 0 1020.64 0v-.56z" fill="#c95f41"/></g></g></svg>