<svg xmlns="http://www.w3.org/2000/svg" viewBox="0 0 116.89 101.16"><defs><linearGradient id="Boton-descongelar_svg__Boton-descongelar_svg__Degradado_sin_nombre_56" x1="-48.94" y1="692.55" x2="3.29" y2="692.55" gradientTransform="rotate(180 33.975 371.56)" gradientUnits="userSpaceOnUse"><stop offset="0" stop-color="#fff" stop-opacity="0"/><stop offset=".23" stop-color="#a09d9b" stop-opacity=".42"/><stop offset=".56" stop-color="#403936" stop-opacity=".85"/><stop offset=".87" stop-color="#1f1713"/></linearGradient><linearGradient id="Boton-descongelar_svg__Boton-descongelar_svg__Degradado_sin_nombre_63" x1="19.58" y1="743.12" x2="19.58" y2="641.96" gradientTransform="rotate(180 33.975 371.56)" gradientUnits="userSpaceOnUse"><stop offset="0" stop-color="#fff"/><stop offset=".11" stop-color="#fbfbfb" stop-opacity=".98"/><stop offset=".22" stop-color="#f1f0f0" stop-opacity=".94"/><stop offset=".33" stop-color="#dfdede" stop-opacity=".86"/><stop offset=".44" stop-color="#c6c4c3" stop-opacity=".75"/><stop offset=".55" stop-color="#a7a3a2" stop-opacity=".61"/><stop offset=".66" stop-color="#7f7b79" stop-opacity=".43"/><stop offset=".76" stop-color="#524c49" stop-opacity=".23"/><stop offset=".87" stop-color="#1f1713" stop-opacity="0"/></linearGradient><linearGradient id="Boton-descongelar_svg__Boton-descongelar_svg__Degradado_sin_nombre_331" x1="37.68" y1="47.4" x2="81.53" y2="47.4" gradientUnits="userSpaceOnUse"><stop offset="0" stop-color="#e25e14"/><stop offset=".39" stop-color="#e26f14"/><stop offset="1" stop-color="#e29014"/></linearGradient><style>.Boton-descongelar_svg__Boton-descongelar_svg__cls-2{fill:#e5d47e}.Boton-descongelar_svg__Boton-descongelar_svg__cls-4{fill:#b5a560}</style></defs><g style="isolation:isolate"><g id="Boton-descongelar_svg__Boton-descongelar_svg__Capa_1" data-name="Capa 1"><path class="Boton-descongelar_svg__Boton-descongelar_svg__cls-2" d="M80.23 91h36.66V10.11H80.23c-40 0 11 15 11 44.56L90 63.61C90 93.18 40.23 91 80.23 91z"/><path d="M80.23 91h36.66V10.11H80.23c-40 0 11 15 11 44.56L90 63.61C90 93.18 40.23 91 80.23 91z" style="mix-blend-mode:multiply" opacity=".49" fill="url(#Boton-descongelar_svg__Boton-descongelar_svg__Degradado_sin_nombre_56)"/><circle class="Boton-descongelar_svg__Boton-descongelar_svg__cls-4" cx="57.68" cy="50.58" r="50.58"/><path class="Boton-descongelar_svg__Boton-descongelar_svg__cls-2" d="M0 50.58C0 22.65 20.44 0 48.37 0s48.38 22.65 48.38 50.58-20.44 50.58-48.38 50.58S0 78.51 0 50.58z"/><path d="M0 50.58C0 22.65 20.44 0 48.37 0s48.38 22.65 48.38 50.58-20.44 50.58-48.38 50.58S0 78.51 0 50.58z" style="mix-blend-mode:screen" opacity=".26" fill="url(#Boton-descongelar_svg__Boton-descongelar_svg__Degradado_sin_nombre_63)"/><path class="Boton-descongelar_svg__Boton-descongelar_svg__cls-4" d="M76.66 47.4s-5.08-1.33-12-6.14L38 22.47 35.85 21a2.71 2.71 0 00-1.19-.5 2.76 2.76 0 00-1.8.34l-.34.23a1.46 1.46 0 00-.52 1.11V79.3a1.46 1.46 0 00.49 1.11l3.51 2.5a2.71 2.71 0 003.29.07l37.78-27.5c1.71-1.41 3.21-4.16-.41-8.08z"/><path d="M77.28 49.27a3.49 3.49 0 00-1.44-2.7S35.71 18.39 34.77 19.14l-3.53 2.45 1 .92V76.2l-1 .92 3.53 2.45a2.71 2.71 0 003.29.07l37.78-27.5a3.51 3.51 0 001.44-2.7v-.17z" fill="#af430c"/><path d="M74.6 47.31a3.53 3.53 0 00-1.44-2.53L36.77 19.13l-2.12-1.5a2.79 2.79 0 00-3-.16l-.34.23a1.46 1.46 0 00-.49 1.11V76a1.44 1.44 0 00.49 1.11l.34.24a2.75 2.75 0 001.8.33 2.8 2.8 0 001.2-.5l2.12-1.5L73.16 50a3.49 3.49 0 001.44-2.53.28.28 0 000-.09.31.31 0 000-.07z" fill="url(#Boton-descongelar_svg__Boton-descongelar_svg__Degradado_sin_nombre_331)"/><path d="M53.31 47A5.36 5.36 0 0048 41.62V52.3a5.36 5.36 0 005.31-5.3z" fill="none"/><path d="M48.88 37v-2.34a1.07 1.07 0 00-.71-1.18H48v4.45a.89.89 0 00.88-.93zm-.79 23.48a.88.88 0 00.78-.83v-2.8a.86.86 0 00-.73-.81H48v4.43zm7.6-19.94c.62-.61 1.22-1.22 1.83-1.83a.91.91 0 00.28-.66.92.92 0 00-.54-.84.9.9 0 00-1 .2l-1.83 1.82a.92.92 0 101.3 1.31zM57.34 55c-.56-.56-1.11-1.13-1.68-1.68a.91.91 0 00-1.26 0 .88.88 0 00-.09 1.24l2 2a.81.81 0 001 .11.89.89 0 00.52-.76 1 1 0 00-.22-.67zm3.19-9H58a.93.93 0 00-1 1 .89.89 0 00.83.82h2.8a.84.84 0 00.78-.61.91.91 0 00-.88-1.21zM48 41.62a5.34 5.34 0 010 10.68v1.84a7.19 7.19 0 100-14.37v1.85z" fill="#ffc627"/><path d="M47.07 34.24a27.47 27.47 0 000 2.87.85.85 0 00.71.77H48v-4.45h-.21c-.39.16-.71.38-.72.81zm-8.19 12.47a.88.88 0 00-.8-.66h-2.46a1.08 1.08 0 00-1.18.72v.42a1 1 0 001 .71h2.53a1 1 0 00.6-.18.94.94 0 00.31-1.01zM47.05 57v2.48a1 1 0 00.06.39.91.91 0 00.86.59V56a.91.91 0 00-.92 1zm-6.77-3.64c-.22.2-.43.42-.64.63-.42.41-.84.82-1.25 1.25a.85.85 0 00-.16 1 .86.86 0 00.79.53.9.9 0 00.69-.27c.62-.62 1.25-1.23 1.86-1.86a.92.92 0 00-1.29-1.3zm-.03-12.82a.92.92 0 101.31-1.29l-1.85-1.85a.94.94 0 00-.72-.27.86.86 0 00-.77.54.89.89 0 00.2 1c.58.66 1.21 1.27 1.83 1.87zm.53 6.46a7.22 7.22 0 007.16 7.19V52.3a5.34 5.34 0 010-10.68v-1.85A7.23 7.23 0 0040.78 47z" fill="#fff648"/></g></g></svg>