<svg xmlns="http://www.w3.org/2000/svg" xmlns:xlink="http://www.w3.org/1999/xlink" viewBox="0 0 143.45 140.4"><defs><linearGradient id="Boton-home_svg__Boton-home_svg__Degradado_sin_nombre_2" x1="769.56" y1="32.15" x2="846.59" y2="-12.32" gradientTransform="matrix(-1 0 0 1 878.54 0)" gradientUnits="userSpaceOnUse"><stop offset="0" stop-color="#cec69b"/><stop offset=".17" stop-color="#c7bd96"/><stop offset=".67" stop-color="#b5a78a"/><stop offset="1" stop-color="#af9f85"/></linearGradient><linearGradient id="Boton-home_svg__Boton-home_svg__Degradado_sin_nombre_2-2" x1="784.5" y1="63.13" x2="860.95" y2="18.99" xlink:href="#Boton-home_svg__Boton-home_svg__Degradado_sin_nombre_2"/><linearGradient id="Boton-home_svg__Boton-home_svg__Degradado_sin_nombre_2-3" x1="803.38" y1="81.97" x2="875.46" y2="40.36" xlink:href="#Boton-home_svg__Boton-home_svg__Degradado_sin_nombre_2"/><linearGradient id="Boton-home_svg__Boton-home_svg__Degradado_sin_nombre_2-4" x1="836.89" y1="87.85" x2="891.43" y2="56.36" xlink:href="#Boton-home_svg__Boton-home_svg__Degradado_sin_nombre_2"/><linearGradient id="Boton-home_svg__Boton-home_svg__Degradado_sin_nombre_277" x1="49.24" y1="22.1" x2="49.24" y2="66.65" gradientUnits="userSpaceOnUse"><stop offset="0" stop-color="#8a2723" stop-opacity=".6"/><stop offset=".07" stop-color="#963a36" stop-opacity=".65"/><stop offset=".22" stop-color="#ae615d" stop-opacity=".76"/><stop offset=".37" stop-color="#c1817e" stop-opacity=".85"/><stop offset=".53" stop-color="#d09a97" stop-opacity=".91"/><stop offset=".68" stop-color="#dbaca9" stop-opacity=".96"/><stop offset=".84" stop-color="#e2b6b3" stop-opacity=".99"/><stop offset="1" stop-color="#e4bab7"/></linearGradient><clipPath id="Boton-home_svg__Boton-home_svg__clip-path"><path d="M80.28 42.28L72 33.88l-6-6.05-16.19-16.3a.8.8 0 00-1.14 0l-16.15 16.3-6 6.05-8.32 8.4A3.11 3.11 0 0020.46 44h5.3l-2.43 30.19a6 6 0 006 6.51h39.82a6 6 0 006-6.51L72.77 44h5a3.21 3.21 0 001.75-.71 3.25 3.25 0 00.76-1.01z" fill="none"/></clipPath><style>.Boton-home_svg__Boton-home_svg__cls-9{fill:#c2a5a0}.Boton-home_svg__Boton-home_svg__cls-16{fill:#c3403f}.Boton-home_svg__Boton-home_svg__cls-17{fill:#400b10}</style></defs><g style="isolation:isolate"><g id="Boton-home_svg__Boton-home_svg__Capa_1" data-name="Capa 1"><path d="M122 0a15.22 15.22 0 01-6.32 12.4 15.31 15.31 0 00-4.07 20.42 15.31 15.31 0 01-9.49 22.92 15.3 15.3 0 00-11.53 17.31 15.31 15.31 0 01-17.54 17.53 15.32 15.32 0 00-17.31 11.57 15.31 15.31 0 01-22.92 9.49 15.32 15.32 0 00-20.42 4.06A15.19 15.19 0 010 122V0z" fill="#d2aca3"/><g style="mix-blend-mode:overlay" opacity=".3"><path d="M106.57 32L24.41 7.8a2.85 2.85 0 011-5.57l85.8 7a2.86 2.86 0 012.56 3.43l-3.64 17.2a2.84 2.84 0 01-3.56 2.14z" fill="url(#Boton-home_svg__Boton-home_svg__Degradado_sin_nombre_2)"/><path d="M85.78 70.88L20.71 18.41a2.84 2.84 0 013.11-4.73l72.57 38.26a2.83 2.83 0 011.19 3.84L90.08 70a2.85 2.85 0 01-4.3.88z" fill="url(#Boton-home_svg__Boton-home_svg__Degradado_sin_nombre_2-2)"/><path d="M54.61 96.16l-41.47-70.3a2.84 2.84 0 014.58-3.33l54.07 61.41a2.84 2.84 0 01-.49 4.2L58.7 97a2.85 2.85 0 01-4.09-.84z" fill="url(#Boton-home_svg__Boton-home_svg__Degradado_sin_nombre_2-3)"/><path d="M29.63 106.91l-14.11 3.5A2.85 2.85 0 0112 108L2 31.74a2.85 2.85 0 015.57-1.24c8.46 26.51 20 62.26 24 72.64a2.83 2.83 0 01-1.94 3.77z" fill="url(#Boton-home_svg__Boton-home_svg__Degradado_sin_nombre_2-4)"/></g><path class="Boton-home_svg__Boton-home_svg__cls-9" d="M0 126.1v14.3h5.5a22.82 22.82 0 0018.66-9.52 10 10 0 0113.24-2.64A23 23 0 0071.89 114a10 10 0 0111.23-7.5 23.05 23.05 0 0026.39-26.4A10 10 0 01117 68.84a23.06 23.06 0 0014.3-34.49 10 10 0 012.63-13.24 22.82 22.82 0 009.52-18.67V0h-12a14.22 14.22 0 01-3.57 9 10.13 10.13 0 01-1.64 1.49 23.16 23.16 0 00-6.12 30.73A9.92 9.92 0 01114 56.08a23.16 23.16 0 00-17.4 26.05 9.93 9.93 0 01-11.42 11.38 23.16 23.16 0 00-26.05 17.41 9.93 9.93 0 01-14.86 6.15 23.14 23.14 0 00-30.73 6.11 10.2 10.2 0 01-1.49 1.65 11.73 11.73 0 01-7.61 2.33A10.06 10.06 0 010 126.1z"/><path d="M0 117.11v13h4.45a21.19 21.19 0 0017.34-8.84 9.28 9.28 0 0112.3-2.45 21.4 21.4 0 0032-13.26 9.25 9.25 0 0110.43-7 21.4 21.4 0 0024.51-24.51 9.27 9.27 0 017-10.43 21.4 21.4 0 0013.26-32 9.27 9.27 0 012.45-12.3A21.18 21.18 0 00132.57 2V0h-11.16a13.21 13.21 0 01-3.3 8.06 9.24 9.24 0 01-1.53 1.39A21.49 21.49 0 00110.91 38a9.24 9.24 0 01-5.72 13.81A21.5 21.5 0 0089 76a9.22 9.22 0 01-10.54 10.55 21.49 21.49 0 00-24.19 16.16 9.24 9.24 0 01-13.81 5.72 21.48 21.48 0 00-28.53 5.67 9.24 9.24 0 01-1.39 1.53 10.82 10.82 0 01-7.07 2.16 9.73 9.73 0 01-3.47-.68z" fill="#dcc4c0"/><path class="Boton-home_svg__Boton-home_svg__cls-9" d="M82.1 38.92L52.63 9.17a3.24 3.24 0 00-4.6 0L18.55 38.92a3.23 3.23 0 002.3 5.51h4.92l-2.5 31.48a6.29 6.29 0 006.27 6.79h41.57a6.29 6.29 0 006.27-6.79l-2.5-31.48h4.92a3.23 3.23 0 002.3-5.51z"/><g clip-path="url(#Boton-home_svg__Boton-home_svg__clip-path)" opacity=".64"><path d="M20.92 64.68c5.33-.17 10.67-.25 16-.32l16-.1 16 .1c5.34.07 10.67.15 16 .32-5.34.18-10.67.26-16 .33l-16 .09-16-.09c-5.33-.07-10.67-.15-16-.33zm0 4.89c5.33-.17 10.67-.25 16-.32l16-.1 16 .1c5.34.07 10.67.15 16 .32-5.34.18-10.67.26-16 .33l-16 .09-16-.1c-5.33-.06-10.67-.14-16-.32zm0 4.89c5.33-.17 10.67-.25 16-.32l16-.1 16 .1c5.34.07 10.67.15 16 .32-5.34.18-10.67.26-16 .32l-16 .1-16-.1c-5.33-.06-10.67-.15-16-.32zm-7.3-58.66c5.34-.17 10.67-.25 16-.32l16-.1 16 .1c5.34.07 10.68.15 16 .32-5.33.17-10.67.26-16 .32l-16 .1-16-.1c-5.33-.07-10.62-.12-16-.32zm0 4.89c5.34-.17 10.67-.26 16-.32l16-.1 16 .1c5.34.06 10.68.14 16 .32-5.33.17-10.67.25-16 .32l-16 .1-16-.1c-5.33-.07-10.62-.15-16-.32zm0 4.89c5.34-.18 10.67-.26 16-.32l16-.1 16 .09c5.34.07 10.68.15 16 .33-5.33.17-10.67.25-16 .32l-16 .1-16-.1c-5.33-.07-10.62-.15-16-.32zm0 4.89c5.34-.18 10.67-.26 16-.33l16-.09 16 .09c5.34.07 10.68.15 16 .33-5.33.17-10.67.25-16 .32l-16 .09-16-.09c-5.33-.07-10.62-.15-16-.32zm0 4.88c5.34-.17 10.67-.25 16-.32l16-.1 16 .1c5.34.07 10.68.15 16 .32-5.33.18-10.67.26-16 .33l-16 .09-16-.09c-5.33-.07-10.62-.15-16-.33zm0 4.89c5.34-.17 10.67-.25 16-.32l16-.1 16 .1c5.34.07 10.68.15 16 .32-5.33.18-10.67.26-16 .33l-16 .09-16-.1c-5.33-.06-10.62-.14-16-.32zm0 4.89c5.34-.17 10.67-.25 16-.32l16-.1 16 .1c5.34.07 10.68.15 16 .32-5.33.18-10.67.26-16 .32l-16 .1-16-.1c-5.33-.07-10.62-.15-16-.32zm0 4.87c5.34-.17 10.67-.26 16-.32l16-.1 16 .1c5.34.06 10.68.14 16 .32-5.33.17-10.67.25-16 .32l-16 .1-16-.1c-5.33-.05-10.62-.13-16-.32zm0 4.91c5.34-.18 10.67-.26 16-.32l16-.1 16 .09c5.34.07 10.68.15 16 .33-5.33.17-10.67.25-16 .32l-16 .1-16-.1c-5.33-.07-10.62-.15-16-.32zm0 4.89c5.34-.18 10.67-.26 16-.33l16-.09 16 .09c5.34.07 10.68.15 16 .33-5.33.17-10.67.25-16 .32l-16 .09-16-.09c-5.33-.07-10.62-.12-16-.32z" fill="#450c17"/></g><path d="M79.68 38.76l-28.23-28.5a3.11 3.11 0 00-4.41 0l-28.23 28.5A3.1 3.1 0 0021 44h4.71l-2.38 30.19a6 6 0 006 6.51h39.82a6 6 0 006-6.51L72.77 44h4.71a3.1 3.1 0 002.2-5.24z" fill="#c13233"/><path d="M80.28 42.28L72 33.88l-6-6.05-16.19-16.3a.8.8 0 00-1.14 0l-16.15 16.3-6 6.05-8.32 8.4A3.11 3.11 0 0020.46 44h5.3l-2.43 30.19a6 6 0 006 6.51h39.82a6 6 0 006-6.51L72.77 44h5a3.21 3.21 0 001.75-.71 3.25 3.25 0 00.76-1.01z" style="mix-blend-mode:multiply" fill="url(#Boton-home_svg__Boton-home_svg__Degradado_sin_nombre_277)"/><path class="Boton-home_svg__Boton-home_svg__cls-16" d="M57.06 43.71H41.43A2.52 2.52 0 0038.92 46L35 80.7h28.51L59.57 46a2.53 2.53 0 00-2.51-2.29z"/><path class="Boton-home_svg__Boton-home_svg__cls-17" d="M56.11 43.71H42.37a2 2 0 00-2.2 2l-3.47 35h25.09l-3.47-35a1.91 1.91 0 00-2.21-2z"/><path class="Boton-home_svg__Boton-home_svg__cls-16" d="M57.24 23.55c0-.62-.8-1-1.5-.77l-2.6.93a8 8 0 00-7.79 0l-2.6-.93c-.71-.26-1.5.15-1.5.77v7.15a8 8 0 1016 0v-7.15z"/><path class="Boton-home_svg__Boton-home_svg__cls-17" d="M56.42 23.46c0-.55-.72-.92-1.35-.69l-2.33.84a7.17 7.17 0 00-7 0l-2.33-.84c-.64-.23-1.35.14-1.35.69v6.39a7.18 7.18 0 1014.35 0v-.39z"/></g></g></svg>