<svg xmlns="http://www.w3.org/2000/svg" xmlns:xlink="http://www.w3.org/1999/xlink" viewBox="0 0 93.91 100.5"><defs><linearGradient id="Boton-rendirse_svg__Boton-rendirse_svg__Degradado_sin_nombre_63" x1="46.96" x2="46.96" y2="89.81" gradientUnits="userSpaceOnUse"><stop offset="0" stop-color="#fff"/><stop offset=".11" stop-color="#fbfbfb" stop-opacity=".98"/><stop offset=".22" stop-color="#f1f0f0" stop-opacity=".94"/><stop offset=".33" stop-color="#dfdede" stop-opacity=".86"/><stop offset=".44" stop-color="#c6c4c3" stop-opacity=".75"/><stop offset=".55" stop-color="#a7a3a2" stop-opacity=".61"/><stop offset=".66" stop-color="#7f7b79" stop-opacity=".43"/><stop offset=".76" stop-color="#524c49" stop-opacity=".23"/><stop offset=".87" stop-color="#1f1713" stop-opacity="0"/></linearGradient><linearGradient id="Boton-rendirse_svg__Boton-rendirse_svg__Degradado_sin_nombre_183" x1="45.66" y1="49.56" x2="72.1" y2="49.56" gradientTransform="rotate(-14.82 60.527 49.548)" gradientUnits="userSpaceOnUse"><stop offset="0" stop-color="#3b2c16"/><stop offset="1" stop-color="#6e5128"/></linearGradient><linearGradient id="Boton-rendirse_svg__Boton-rendirse_svg__Degradado_sin_nombre_181" x1="16.45" y1="23.95" x2="73.03" y2="36.69" gradientUnits="userSpaceOnUse"><stop offset=".03" stop-color="#fff"/><stop offset=".28" stop-color="#fbfbfc"/><stop offset=".53" stop-color="#eff0f1"/><stop offset=".77" stop-color="#dcdddf"/><stop offset="1" stop-color="#c2c3c8"/></linearGradient><linearGradient id="Boton-rendirse_svg__Boton-rendirse_svg__Degradado_sin_nombre_181-2" x1="30.47" y1="21.01" x2="59.23" y2="21.01" xlink:href="#Boton-rendirse_svg__Boton-rendirse_svg__Degradado_sin_nombre_181"/><linearGradient id="Boton-rendirse_svg__Boton-rendirse_svg__Degradado_sin_nombre_181-3" x1="17.42" y1="31.34" x2="36.05" y2="31.34" xlink:href="#Boton-rendirse_svg__Boton-rendirse_svg__Degradado_sin_nombre_181"/><clipPath id="Boton-rendirse_svg__Boton-rendirse_svg__clip-path"><rect x="54.2" y="17.61" width="12.7" height="63.91" rx="4.9" ry="4.9" transform="rotate(14.82 60.553 49.556)" fill="none"/></clipPath><style>.Boton-rendirse_svg__Boton-rendirse_svg__cls-3{fill:#b5a560}</style></defs><g style="isolation:isolate"><g id="Boton-rendirse_svg__Boton-rendirse_svg__Capa_1" data-name="Capa 1"><circle class="Boton-rendirse_svg__Boton-rendirse_svg__cls-3" cx="46.96" cy="53.54" r="46.96"/><path d="M47 0C21 0 0 19 0 44.91s21 44.9 47 44.9 46.95-19 46.95-44.9S72.89 0 47 0z" fill="#e5d47e"/><path d="M47 0C21 0 0 19 0 44.91s21 44.9 47 44.9 46.95-19 46.95-44.9S72.89 0 47 0z" style="mix-blend-mode:screen" opacity=".26" fill="url(#Boton-rendirse_svg__Boton-rendirse_svg__Degradado_sin_nombre_63)"/><path class="Boton-rendirse_svg__Boton-rendirse_svg__cls-3" d="M62.28 20.85C50.56 26.75 36.52 9.43 25.79 8.16c-1.19-.14-1.08 0-1.53 1.62-2.25 8.1-5.42 21-7.65 28.9A.3.3 0 0017 39c13.3-3.79 22.38 10.06 34.85 12.89l5.09 1 7.39-28.52c.18-.56-2.05-3.52-2.05-3.52z"/><path class="Boton-rendirse_svg__Boton-rendirse_svg__cls-3" d="M53.43 83.31a7.12 7.12 0 008.5-4.94L75 29a7.28 7.28 0 00-2.1-7 8.62 8.62 0 00-6.82-2.29c-3.55.34-4.93 2.62-5.68 5.46L47.08 75.71c-.98 3.71 1.92 6.94 6.35 7.6z"/><rect x="54.2" y="17.61" width="12.7" height="63.91" rx="4.9" ry="4.9" transform="rotate(14.82 60.553 49.556)" fill="url(#Boton-rendirse_svg__Boton-rendirse_svg__Degradado_sin_nombre_183)"/><g clip-path="url(#Boton-rendirse_svg__Boton-rendirse_svg__clip-path)"><path d="M60.55 31.35c-.13 2.55.05 5.06.06 7.61s0 5.09-.15 7.64a52.14 52.14 0 01-1 7.64 20.37 20.37 0 01-2.88 7.17 42.64 42.64 0 001.3-7.41c.24-2.49.43-5 .59-7.51s.32-5 .59-7.58a29.57 29.57 0 011.49-7.56zM62.28 37a44.14 44.14 0 01.65-10.2 47.09 47.09 0 011.16-5 18.57 18.57 0 012-4.72A39.64 39.64 0 0064.85 22c-.33 1.65-.65 3.31-.93 5-.6 3.29-1.08 6.63-1.64 10zm6.65-13.52c-.23.54-.47 1.08-.71 1.6l-.64 1.63c-.4 1.09-.78 2.19-1.1 3.3q-1 3.35-1.63 6.77c-.48 2.28-.86 4.58-1.29 6.87a67.24 67.24 0 01-1.49 6.87c.11-1.17.26-2.32.35-3.49l.38-3.49c.26-2.33.61-4.65 1.07-7a47.73 47.73 0 011.88-6.81 27.14 27.14 0 013.18-6.25zM56.38 76.92c0-.09 0-.19.07-.28.54-2.14 1-4.29 1.45-6.46l1.38-6.83a44.52 44.52 0 011.88-6.82c0 2.38-.13 4.7-.33 7a64.34 64.34 0 01-1 7A41.05 41.05 0 0158 77.15c0 .08-.07.17-.1.26s-1.49-.26-1.52-.49zm-.91-22.32a64.81 64.81 0 00-2.2 9 66.25 66.25 0 00-.76 9.28 25.75 25.75 0 013-18.33z" fill="#6e5935"/></g><path d="M73.33 27.83a.57.57 0 01-.25.06.6.6 0 01-.54-.35c-3.05-6.74-10.84-4.71-11.17-4.62a.55.55 0 01-.47-.08c-2.13 8.8-4.26 17-6.38 24.72.8-.18 9-1.76 12.34 5.23a.59.59 0 01-.28.79.57.57 0 01-.25.06.59.59 0 01-.54-.34c-3.11-6.44-10.79-4.65-11.07-4.57a.6.6 0 01-.5-.12l-.21.8c-6-1-12-5.45-18-9.08-6.21-3.77-12.42-6.7-18.63-4.16 1.13-4.74 2.27-9.3 3.41-13.71 1.33-5.22 2.67-10.23 4-15.07a22.84 22.84 0 015.62 1.85c9.58 4.39 19.17 14.1 28.76 12.06a12.31 12.31 0 002.2-.67l-.27 1.12c1-.23 9.18-1.95 12.46 5.3a.59.59 0 01-.23.78z" fill="url(#Boton-rendirse_svg__Boton-rendirse_svg__Degradado_sin_nombre_181)"/><path d="M59.23 21.3l-5 7.6a8.62 8.62 0 01-15-1.07L30.47 9.24c9.58 4.39 19.17 14.1 28.76 12.06z" fill="url(#Boton-rendirse_svg__Boton-rendirse_svg__Degradado_sin_nombre_181-2)" opacity=".8"/><path d="M36.05 40.33c-6.21-3.77-12.42-6.7-18.63-4.16 1.13-4.74 2.27-9.3 3.41-13.71a8.59 8.59 0 019.1 4.86z" fill="url(#Boton-rendirse_svg__Boton-rendirse_svg__Degradado_sin_nombre_181-3)" opacity=".8"/><path d="M51.11 79.64l2.8.74A4.16 4.16 0 0058.45 79c.81-1.08-2.61-2-3.59-2.25L52.07 76c-1.07-.28-4.36-1.09-4.26.23a4.06 4.06 0 003.3 3.41z" fill="#836633"/></g></g></svg>