<svg xmlns="http://www.w3.org/2000/svg" xmlns:xlink="http://www.w3.org/1999/xlink" viewBox="0 0 116.89 101.16"><defs><linearGradient id="Boton-congelar_svg__Boton-congelar_svg__Degradado_sin_nombre_56" x1="215.13" y1="697.85" x2="267.35" y2="697.85" gradientTransform="rotate(180 166.01 374.21)" gradientUnits="userSpaceOnUse"><stop offset="0" stop-color="#fff" stop-opacity="0"/><stop offset=".23" stop-color="#a09d9b" stop-opacity=".42"/><stop offset=".56" stop-color="#403936" stop-opacity=".85"/><stop offset=".87" stop-color="#1f1713"/></linearGradient><linearGradient id="Boton-congelar_svg__Boton-congelar_svg__Degradado_sin_nombre_63" x1="283.64" y1="748.42" x2="283.64" y2="647.26" gradientTransform="rotate(180 166.01 374.21)" gradientUnits="userSpaceOnUse"><stop offset="0" stop-color="#fff"/><stop offset=".11" stop-color="#fbfbfb" stop-opacity=".98"/><stop offset=".22" stop-color="#f1f0f0" stop-opacity=".94"/><stop offset=".33" stop-color="#dfdede" stop-opacity=".86"/><stop offset=".44" stop-color="#c6c4c3" stop-opacity=".75"/><stop offset=".55" stop-color="#a7a3a2" stop-opacity=".61"/><stop offset=".66" stop-color="#7f7b79" stop-opacity=".43"/><stop offset=".76" stop-color="#524c49" stop-opacity=".23"/><stop offset=".87" stop-color="#1f1713" stop-opacity="0"/></linearGradient><linearGradient id="Boton-congelar_svg__Boton-congelar_svg__Degradado_sin_nombre_65" x1="20.83" y1="50.93" x2="77.47" y2="50.93" gradientUnits="userSpaceOnUse"><stop offset="0" stop-color="#6d9ddf"/><stop offset=".35" stop-color="#75aee1"/><stop offset="1" stop-color="#89d7e5"/></linearGradient><linearGradient id="Boton-congelar_svg__Boton-congelar_svg__Degradado_sin_nombre_100" x1="36.37" y1="24.31" x2="61.82" y2="87.29" gradientUnits="userSpaceOnUse"><stop offset="0" stop-color="#7fbdd6"/><stop offset="0" stop-color="#7fbdd6"/><stop offset=".17" stop-color="#96cde6"/><stop offset=".35" stop-color="#a6d9f2"/><stop offset=".55" stop-color="#afe0f9"/><stop offset=".82" stop-color="#b2e2fb"/></linearGradient><linearGradient id="Boton-congelar_svg__Boton-congelar_svg__Degradado_sin_nombre_326" x1="35.42" y1="48.17" x2="47.04" y2="48.17" gradientUnits="userSpaceOnUse"><stop offset="0" stop-color="#7fbdd6"/><stop offset=".51" stop-color="#81bed7"/><stop offset=".7" stop-color="#88c3dc"/><stop offset=".83" stop-color="#93cce5"/><stop offset=".94" stop-color="#a4d8f1"/><stop offset="1" stop-color="#b2e2fb"/></linearGradient><linearGradient id="Boton-congelar_svg__Boton-congelar_svg__Degradado_sin_nombre_70" x1="43.57" y1="48.19" x2="57.74" y2="48.19" xlink:href="#Boton-congelar_svg__Boton-congelar_svg__Degradado_sin_nombre_65"/><style>.Boton-congelar_svg__Boton-congelar_svg__cls-2{fill:#e5d47e}.Boton-congelar_svg__Boton-congelar_svg__cls-8{fill:#fafafa}</style></defs><g style="isolation:isolate"><g id="Boton-congelar_svg__Boton-congelar_svg__Capa_1" data-name="Capa 1"><path class="Boton-congelar_svg__Boton-congelar_svg__cls-2" d="M80.23 91h36.66V10.11H80.23c-40 0 11 15 11 44.56L90 63.61C90 93.18 40.23 91 80.23 91z"/><path d="M80.23 91h36.66V10.11H80.23c-40 0 11 15 11 44.56L90 63.61C90 93.18 40.23 91 80.23 91z" style="mix-blend-mode:multiply" opacity=".49" fill="url(#Boton-congelar_svg__Boton-congelar_svg__Degradado_sin_nombre_56)"/><circle cx="57.68" cy="50.58" r="50.58" fill="#b5a560"/><path class="Boton-congelar_svg__Boton-congelar_svg__cls-2" d="M0 50.58C0 22.65 20.44 0 48.37 0s48.38 22.65 48.38 50.58-20.44 50.58-48.38 50.58S0 78.51 0 50.58z"/><path d="M0 50.58C0 22.65 20.44 0 48.37 0s48.38 22.65 48.38 50.58-20.44 50.58-48.38 50.58S0 78.51 0 50.58z" style="mix-blend-mode:screen" opacity=".26" fill="url(#Boton-congelar_svg__Boton-congelar_svg__Degradado_sin_nombre_63)"/><path d="M77.09 28.13l-3.39-3.3a8.08 8.08 0 00-.6-.57 6.33 6.33 0 00-4.1-1.5H24.79a6.17 6.17 0 00-6.26 6.08v42.8A6 6 0 0021 76.45l2.92 2.84a6.32 6.32 0 005 2.36H73a6.75 6.75 0 001.69-.22 6.11 6.11 0 004.57-5.85V32.73a6 6 0 00-2.17-4.6z" fill="#9b8d53"/><path d="M75.36 26.13l-3.3-3.3-.61-.61-1.66 1.66.78.78h-42a6.08 6.08 0 00-6.07 6.08v42l-1.64 1.64 2.9 2.91a6.05 6.05 0 004.81 2.36h42.82a6.3 6.3 0 001.61-.22 6.09 6.09 0 004.43-5.85V30.73a6.06 6.06 0 00-2.07-4.6zM70.23 75l2.56-5.73s.44-1.31.44 0a4.22 4.22 0 00.24 1.2A6.06 6.06 0 0170.23 75z" fill="url(#Boton-congelar_svg__Boton-congelar_svg__Degradado_sin_nombre_65)"/><path class="Boton-congelar_svg__Boton-congelar_svg__cls-8" d="M77.47 72.54v1A6.09 6.09 0 0173 79.43c1.33-1.2.89-5.07-3.4-4.12 1.71-.89 3.63-4.54 3.91-6.52 0 2.95 1 5 2.47 5a1.28 1.28 0 001.49-1.25z"/><path d="M72.06 22.83a6.06 6.06 0 00-4.6-2.11H24.6a6.08 6.08 0 00-6.07 6.08v42.84a6.07 6.07 0 006.07 6.07h42.85a6 6 0 002.78-.71 6.06 6.06 0 003.23-4.53 4.94 4.94 0 00.07-.87V26.79a6 6 0 00-1.47-3.96z" fill="url(#Boton-congelar_svg__Boton-congelar_svg__Degradado_sin_nombre_100)"/><path d="M58.92 67.83l-26.49-4.57a5.63 5.63 0 01-5.63-5.63V38.75a5.63 5.63 0 015.63-5.63l26.49-3a5.64 5.64 0 015.64 5.64V62.2a5.64 5.64 0 01-5.64 5.63z" fill="snow"/><path class="Boton-congelar_svg__Boton-congelar_svg__cls-8" d="M75 66.68c0 .71.63.86.78.2l.45-2a36.43 36.43 0 00.22-5.63V40.38c0-3.11 0-4.87-.1-5.08l-.58-1.88c-.19-.57-.73-.38-.75.27v30.14c-.1 1.04-.09 2.01-.02 2.85zm-4.32-2.58c-.31 2.32-1.45 5.87-7.31 7.45C54.24 74 40 73.46 40 73.46h22.29c3.39 0 6.52-.54 7.73-3.7a22.27 22.27 0 00.66-5.66M30.24 27.36c2.65-1.61 8.91-1.6 13.1-1.79 6-.26.22-.3.22-.3H32.17c-4.82 0-9.16-3.21-9.29.7-.06 1.48 2.24 1.48 1.56 3a1.49 1.49 0 002.48 1.52c1.18-1.21 1.14-1.8 3.32-3.13z"/><path d="M47 60.38a.76.76 0 01-1.2-.61v-.39c0-.13-.09-.23-.24-.13l-.5.38a.77.77 0 01-1.08-.1.76.76 0 01.16-1.11q.75-.6 1.53-1.17a.33.33 0 00.14-.29v-1.63c0-.08 0-.16-.08-.22s-.15 0-.21.07l-1 .76a.76.76 0 01-1.24-.5.83.83 0 01.35-.75c.66-.49 1.31-1 2-1.5a.52.52 0 00.2-.51c0-.39 0-.39-.37-.49a4 4 0 01-1.85-1.11.3.3 0 00-.41-.06.76.76 0 00-.48.72c-.06.75-.18 1.5-.28 2.24a.8.8 0 01-.74.76.77.77 0 01-.77-.57 2.5 2.5 0 010-.86c0-.25.07-.5.1-.76s-.08-.24-.22-.16c-.52.29-1 .6-1.56.9-.07 0-.07.12-.08.19L39 55.36a.79.79 0 01-.92.74.78.78 0 01-.61-.94c0-.17.05-.35.08-.52s0-.15-.05-.2-.15 0-.22 0l-.29.17a.76.76 0 11-.79-1.3l.33-.2c.16-.11.16-.22 0-.3s-.37-.15-.55-.23a.77.77 0 11.59-1.41l1.78.74a.31.31 0 00.31 0l1.34-.82c.07 0 .14-.08.14-.17s-.09-.13-.17-.16l-1.11-.45a.79.79 0 01-.48-1 .76.76 0 011.05-.38l2.33 1a1 1 0 00.82-.29v-.18a4.26 4.26 0 010-2.4.23.23 0 00-.12-.29.79.79 0 00-.92-.09c-.68.33-1.4.6-2.1.88a.77.77 0 01-1.05-.38.76.76 0 01.48-1l1.13-.55c.08 0 .19-.05.2-.16s-.08-.14-.16-.19c-.46-.27-.93-.53-1.39-.81a.35.35 0 00-.34 0l-1.75.74a.77.77 0 01-1.09-.54.76.76 0 01.42-.83c.19-.1.4-.17.6-.26s.15-.05.15-.16-.06-.12-.13-.16l-.31-.18a.76.76 0 01.74-1.33l.36.2a.15.15 0 00.2 0 .19.19 0 00.05-.19c0-.18-.06-.35-.08-.52a.8.8 0 01.47-.91.78.78 0 01.93.31c.21.34.09.75.26 1.1a1.64 1.64 0 01.12 1.07.26.26 0 00.15.34l1.41.82c.08 0 .16.09.25 0s0-.14 0-.22C41 43.37 41 43 40.9 42.6a.8.8 0 01.39-.86.74.74 0 01.86.09.8.8 0 01.28.56l.3 2.41a.9.9 0 00.65.64.25.25 0 00.18-.1 4.07 4.07 0 012-1.19.25.25 0 00.21-.27.78.78 0 00-.37-.82c-.62-.43-1.2-.91-1.8-1.37a.79.79 0 01-.23-1.1.77.77 0 011.14-.12c.32.23.62.48.94.71.06 0 .13.14.23.09s.09-.14.09-.23v-1.61a.33.33 0 00-.16-.3L44.17 38a.77.77 0 01-.32-.84.69.69 0 01.57-.55.75.75 0 01.6.12l.48.36c.07.05.13.13.24.09s.07-.17.08-.26v-.32a.78.78 0 01.38-.6.68.68 0 01.39-.13.47.47 0 01.19 0A.57.57 0 0147 36a.16.16 0 010 .15 1.22 1.22 0 00-.31.91v6.26a1.17 1.17 0 01-.69 1.16 4.43 4.43 0 00-1.91 1.85 4.22 4.22 0 00.71 4.76 5.46 5.46 0 001.27 1 1.1 1.1 0 01.61 1.06v6.14a1.19 1.19 0 00.33.95c-.01.02.06.07-.01.14z" fill="url(#Boton-congelar_svg__Boton-congelar_svg__Degradado_sin_nombre_326)"/><path d="M56.71 52.82l.55-.24a.77.77 0 00.42-1 .75.75 0 00-1-.39l-1.73.72c-.12.05-.22.11-.36 0-.47-.29-.94-.55-1.42-.83-.07 0-.17-.07-.16-.18s.11-.14.19-.18c.39-.17.79-.32 1.18-.5a.75.75 0 10-.65-1.36l-2.36 1a.37.37 0 01-.38 0 1.69 1.69 0 00-.29-.17.23.23 0 01-.12-.32 4 4 0 000-2.41.18.18 0 01.08-.24.8.8 0 011-.1 1.84 1.84 0 00.35.15l1.76.73a.73.73 0 00.87-.19.71.71 0 00.12-.83 1 1 0 00-.6-.45l-1.31-.55.22-.15c.47-.27.94-.53 1.4-.81a.53.53 0 01.57 0c.57.25 1.15.49 1.74.71a.73.73 0 001-.57.75.75 0 00-.49-.86l-.86-.36c.23-.13.41-.23.58-.34a.8.8 0 00.41-.81.76.76 0 00-1.12-.53 3.74 3.74 0 01-.63.33c0-.31.08-.59.12-.88a.8.8 0 00-.58-.9.75.75 0 00-.91.61q-.12.69-.18 1.38c-.05.46-.08.88-.62 1.1a12.46 12.46 0 00-1.36.76 1.62 1.62 0 010-.39c.06-.43.13-.87.16-1.3a.75.75 0 00-1.49-.15l-.33 2.52c0 .13 0 .28-.15.36a4.1 4.1 0 00-.4.23c-.12.08-.19.05-.28 0a4 4 0 00-2.06-1.21c-.15 0-.21-.1-.2-.25a1.41 1.41 0 000-.29.43.43 0 01.22-.44c.66-.49 1.31-1 2-1.5a.8.8 0 00.27-1 .77.77 0 00-1.22-.23l-.93.72c-.07.06-.14.13-.24.07s-.07-.13-.07-.21a7.77 7.77 0 000-1.08 1.11 1.11 0 01.6-1.2 9.87 9.87 0 001.14-.88.75.75 0 00-1-1.15l-.52.39c-.15.1-.23 0-.25-.12s0-.21 0-.31A.83.83 0 0047 36a1.26 1.26 0 00-.43 1v6.36a1 1 0 01-.6 1 4.51 4.51 0 00-1.63 1.35 4 4 0 00-.77 2.82 4.24 4.24 0 00.66 2 5.07 5.07 0 001.84 1.66.93.93 0 01.5.88v6.43a1.09 1.09 0 00.27.7c.06.07.16.09.17.19a.73.73 0 00.29-.42 1.56 1.56 0 000-.48c0-.1 0-.22.08-.28s.19.06.27.12.29.22.44.33a.73.73 0 00.62.13.74.74 0 00.56-.57.77.77 0 00-.33-.82l-1.47-1.12a.35.35 0 01-.17-.32v-1.61c0-.09 0-.19.08-.24s.17 0 .24.08l.95.74a.78.78 0 001.11-.11.79.79 0 00-.2-1.11l-2-1.55a.27.27 0 01-.14-.26 2.8 2.8 0 000-.41.2.2 0 01.18-.24 4 4 0 002-1.19c.06 0 .11-.12.2-.11a.9.9 0 01.66.63c.11.83.23 1.66.33 2.5a.76.76 0 00.8.66.75.75 0 00.69-.88c0-.41-.1-.83-.16-1.24 0-.09 0-.17.06-.23s.15 0 .22 0c.41.24.81.5 1.23.7a.69.69 0 01.4.62c.06.58.13 1.16.23 1.74a.74.74 0 00.92.62.78.78 0 00.56-.94c0-.16 0-.31-.07-.47s0-.19.05-.25.19 0 .27 0l.34.19a.77.77 0 00.92-.25.75.75 0 00-.09-1 2.32 2.32 0 00-.46-.31.19.19 0 01-.12-.19c.07.01.14-.01.21-.03zm-10.14-2a2.65 2.65 0 112.66-2.64 2.67 2.67 0 01-2.66 2.66z" fill="url(#Boton-congelar_svg__Boton-congelar_svg__Degradado_sin_nombre_70)"/></g></g></svg>