<svg xmlns="http://www.w3.org/2000/svg" viewBox="0 0 32.63 31.17"><defs><linearGradient id="Boton-sonido-submarino_svg__Boton-sonido-submarino_svg__Degradado_sin_nombre_63" x1="16.32" x2="16.32" y2="29.35" gradientUnits="userSpaceOnUse"><stop offset="0" stop-color="#fff"/><stop offset=".11" stop-color="#fbfbfb" stop-opacity=".98"/><stop offset=".22" stop-color="#f1f0f0" stop-opacity=".94"/><stop offset=".33" stop-color="#dfdede" stop-opacity=".86"/><stop offset=".44" stop-color="#c6c4c3" stop-opacity=".75"/><stop offset=".55" stop-color="#a7a3a2" stop-opacity=".61"/><stop offset=".66" stop-color="#7f7b79" stop-opacity=".43"/><stop offset=".76" stop-color="#524c49" stop-opacity=".23"/><stop offset=".87" stop-color="#1f1713" stop-opacity="0"/></linearGradient><style>.Boton-sonido-submarino_svg__Boton-sonido-submarino_svg__cls-5{fill:#b04321}.Boton-sonido-submarino_svg__Boton-sonido-submarino_svg__cls-6{fill:#c95f41}.Boton-sonido-submarino_svg__Boton-sonido-submarino_svg__cls-7{fill:#bd4521}</style></defs><g style="isolation:isolate"><g id="Boton-sonido-submarino_svg__Boton-sonido-submarino_svg__Capa_1" data-name="Capa 1"><path d="M15.35.46C6.88.82 0 7.33 0 15.81s6.88 15.05 15.35 15.34c10.33.36 17.28-5.61 17.28-16.84C32.63 5.83 25 .05 15.35.46z" fill="#b5a560"/><path d="M16.32 0C7.84 0 1 6.2 1 14.68s6.84 14.67 15.32 14.67 15.34-6.2 15.34-14.67S24.79 0 16.32 0z" fill="#e5d47e"/><path d="M16.32 0C7.84 0 1 6.2 1 14.68s6.84 14.67 15.32 14.67 15.34-6.2 15.34-14.67S24.79 0 16.32 0z" style="mix-blend-mode:screen" opacity=".26" fill="url(#Boton-sonido-submarino_svg__Boton-sonido-submarino_svg__Degradado_sin_nombre_63)"/><path class="Boton-sonido-submarino_svg__Boton-sonido-submarino_svg__cls-5" d="M18.43 7.09a1.77 1.77 0 00-.45.18l-6.08 3.52H8.09c-.31 0-.38-.84-.66-.75A3.29 3.29 0 005 13.37V16a2.59 2.59 0 001.72 2.43 5.85 5.85 0 001.34.16h3.84l6.1 3.54a1.77 1.77 0 00.45.18c1.1.3 2.71.11 2.66-2.23L20.7 8.85a1.81 1.81 0 00-2.27-1.76z"/><path class="Boton-sonido-submarino_svg__Boton-sonido-submarino_svg__cls-6" d="M18.81 6.12a1.82 1.82 0 011.36 1.76v11.71a1.81 1.81 0 01-1.36 1.76 1.82 1.82 0 002.28-1.76V7.88a1.82 1.82 0 00-2.28-1.76z"/><path class="Boton-sonido-submarino_svg__Boton-sonido-submarino_svg__cls-7" d="M20.17 19.59V7.88a1.82 1.82 0 00-1.36-1.76 2.88 2.88 0 00-.45.19L8.22 12.16a1.82 1.82 0 000 3.15l10.14 5.85a1.73 1.73 0 00.45.19 1.81 1.81 0 001.36-1.76z"/><path class="Boton-sonido-submarino_svg__Boton-sonido-submarino_svg__cls-7" d="M8.47 9.82a2.48 2.48 0 00-.86.16 2.47 2.47 0 011.62 2.32v2.87a2.49 2.49 0 01-1.62 2.33 2.47 2.47 0 00.86.15h5.25V9.82z"/><path class="Boton-sonido-submarino_svg__Boton-sonido-submarino_svg__cls-6" d="M9.23 15.17V12.3A2.47 2.47 0 007.61 10a2.58 2.58 0 00-1.72 2.4v2.67a2.59 2.59 0 001.72 2.43 2.49 2.49 0 001.62-2.33z"/><path d="M13.1 11.17h0a8.88 8.88 0 010 5.39h0" fill="none" stroke="#c95f41" stroke-linecap="round" stroke-miterlimit="10" stroke-width=".43"/><path class="Boton-sonido-submarino_svg__Boton-sonido-submarino_svg__cls-5" d="M24.05 18.87a.91.91 0 01-.75-.38 7.49 7.49 0 01-.14-8.83 1.15 1.15 0 011.58-.35c.46.22.35 1.06.05 1.47A5.42 5.42 0 0024 15.7c.18.56 1.1.93 1.2 1.54a1.2 1.2 0 01-.58 1.46 1 1 0 01-.57.17z"/><path class="Boton-sonido-submarino_svg__Boton-sonido-submarino_svg__cls-5" d="M25.21 14a1.49 1.49 0 001.39 1.61A1.65 1.65 0 0028.41 14a1.55 1.55 0 00-1.6-1.63 1.62 1.62 0 00-1.6 1.63z"/><path class="Boton-sonido-submarino_svg__Boton-sonido-submarino_svg__cls-6" d="M24.79 18.26a.85.85 0 01-.7-.36 7.1 7.1 0 010-8.33.86.86 0 011.2-.2.87.87 0 01.2 1.21 5.37 5.37 0 000 6.32.86.86 0 01-.2 1.2.85.85 0 01-.5.16z"/><circle class="Boton-sonido-submarino_svg__Boton-sonido-submarino_svg__cls-6" cx="27.25" cy="13.74" r="1.48"/></g></g></svg>